<?xml version="1.0" encoding="utf-8"?>
<svg version="1.1" id="Layer_1" xmlns="http://www.w3.org/2000/svg" x="0px" y="0px" width="100%" viewBox="0 0 1895 1790" enable-background="new 0 0 1895 1790">
  <path fill="#292929" opacity="1.000000" stroke="none" d=" M404.247131,791.807983 C398.516083,786.020020 393.483856,779.904602 387.387909,775.154358 C377.979645,767.823181 373.948273,757.789734 372.201202,746.889832 C369.819794,732.032349 368.441437,717.000244 367.058380,702.003845 C366.549194,696.482483 366.702026,690.769775 367.501740,685.282593 C369.869476,669.035828 381.767029,662.707214 395.954590,659.201416 C416.078583,654.228760 436.337738,650.153259 457.119934,648.865845 C469.172272,648.119324 481.162018,646.385742 493.187958,645.175781 C496.428955,644.849670 497.917419,643.113098 499.186523,640.152405 C509.598206,615.862976 519.811768,591.475220 530.885498,567.486511 C544.357849,538.301819 560.865112,510.783051 578.568115,483.956848 C595.246948,458.682434 614.217224,435.215332 633.373962,411.818085 C648.305664,393.581207 665.025085,377.127808 682.394226,361.467957 C714.801636,332.249664 749.478271,305.997070 789.107483,286.950195 C819.852356,272.173401 852.059448,261.920898 885.630066,256.255035 C897.843323,254.193741 910.355164,253.607941 922.762329,253.041000 C972.812317,250.754044 1020.304077,261.620483 1065.778320,281.942413 C1099.652954,297.080658 1130.931274,316.626709 1159.556152,340.166382 C1176.860962,354.396912 1194.103638,368.895874 1209.845703,384.788269 C1232.634888,407.795013 1253.256958,432.813904 1272.133301,459.212830 C1294.326538,490.250519 1313.513916,523.078186 1331.479858,556.701172 C1345.701660,583.317383 1357.359985,611.028992 1368.390381,639.040710 C1370.310425,643.916870 1373.408691,645.716187 1378.554932,646.082764 C1392.595093,647.083191 1406.642822,648.268066 1420.600342,650.060242 C1435.364258,651.955994 1450.089600,654.313477 1464.707520,657.116455 C1471.501343,658.419312 1478.264404,660.671570 1484.575684,663.523926 C1495.100952,668.280945 1499.860229,677.531494 1500.924072,688.574768 C1502.968140,709.792908 1499.252930,730.522827 1494.380737,751.013794 C1491.698364,762.295288 1485.699585,771.659363 1475.660767,778.258728 C1464.761963,785.423523 1459.012573,796.529907 1456.250366,808.641235 C1452.132080,826.699219 1449.681885,845.130676 1445.950073,863.285767 C1442.382202,880.643616 1438.752930,898.044556 1433.840332,915.048035 C1431.147583,924.368713 1429.585815,933.264282 1430.978516,942.853088 C1432.024414,950.054260 1432.638794,957.354492 1432.876465,964.629211 C1433.419434,981.252563 1433.995972,997.890869 1433.839111,1014.516357 C1433.690308,1030.284912 1432.871338,1046.059814 1431.915527,1061.805664 C1429.092041,1108.317749 1421.029663,1153.903076 1407.736938,1198.600098 C1397.123657,1234.286743 1383.127319,1268.552612 1365.725098,1301.423584 C1350.435669,1330.303955 1332.333374,1357.350830 1311.183838,1382.273560 C1302.266357,1392.781982 1293.178467,1403.220215 1283.381470,1412.893921 C1253.198730,1442.696289 1219.596558,1468.004395 1182.580444,1488.865356 C1155.222656,1504.283081 1126.726807,1517.030151 1096.833252,1526.421509 C1068.828857,1535.219360 1040.515381,1543.128906 1011.138489,1546.006470 C994.484985,1547.637695 977.788635,1548.884155 961.091125,1549.994995 C951.314758,1550.645508 941.496460,1550.993530 931.699646,1550.946167 C905.131104,1550.817627 878.714905,1548.885010 852.349426,1545.241577 C821.474854,1540.974976 791.442993,1533.642212 762.039612,1523.516724 C729.203552,1512.209106 697.999390,1497.452271 668.527649,1479.045288 C643.382080,1463.340454 619.786621,1445.679810 597.879456,1425.619141 C573.231750,1403.048828 551.771851,1377.817871 532.415771,1350.703369 C505.539124,1313.053589 486.173279,1271.573242 469.905365,1228.460693 C458.431915,1198.054321 450.425781,1166.712402 444.380768,1134.901001 C441.203735,1118.182251 440.086182,1101.074585 437.965790,1084.151855 C433.404297,1047.746948 433.681732,1011.158752 434.121307,974.592590 C434.278473,961.523560 436.351379,948.483398 436.684814,935.408020 C436.837494,929.421631 435.172974,923.321167 433.858429,917.377258 C428.742920,894.247192 423.168091,871.215393 418.326660,848.029541 C416.200134,837.845398 416.198334,827.195190 413.798126,817.097351 C411.756592,808.508423 407.657837,800.408447 404.247131,791.807983 M1251.971191,968.994446 C1251.971191,968.994446 1251.917358,968.947388 1252.435425,968.966553 C1252.608276,968.964355 1252.781006,968.962158 1253.529419,969.580750 C1255.171265,969.721985 1256.835815,970.112549 1258.451660,969.966187 C1276.410645,968.338684 1294.545044,967.704895 1312.273560,964.692688 C1340.205933,959.946838 1361.852783,945.433289 1373.982666,918.904846 C1383.942993,897.120972 1388.345337,873.815247 1391.975586,850.348877 C1393.795288,838.586914 1395.335938,826.781799 1397.669678,814.644714 C1398.046143,814.110352 1398.673828,813.614624 1398.762817,813.036011 C1401.732178,793.713684 1404.007080,774.341675 1401.908569,754.753296 C1400.921875,745.541870 1396.654785,737.711548 1390.940308,730.650269 C1389.919067,729.388428 1387.948730,728.894714 1385.743042,728.259338 C1384.817749,728.112305 1383.892578,727.965271 1382.642212,727.234863 C1381.584595,726.485657 1380.627197,725.473694 1379.454468,725.026917 C1363.802246,719.064697 1347.470703,716.376953 1329.938110,715.059937 C1323.489136,714.743958 1317.041382,714.184326 1310.591064,714.155701 C1286.759277,714.049866 1262.926758,714.119629 1238.145508,714.008301 C1216.572021,714.658081 1194.999634,715.346497 1173.424683,715.946289 C1153.198486,716.508545 1133.083252,718.137085 1113.195190,722.001465 C1094.648071,725.605225 1076.781494,731.038269 1061.317505,742.419434 C1045.043579,754.396606 1035.289429,769.929810 1037.134766,790.798706 C1038.049316,801.141907 1039.936768,811.449097 1042.091797,821.622620 C1047.129395,845.403809 1055.094727,868.271729 1064.858521,890.509216 C1065.486450,891.939453 1067.223877,892.882507 1068.181641,894.792847 C1070.524292,900.399902 1072.517334,906.185730 1075.275269,911.580566 C1083.618408,927.900269 1095.362305,941.249817 1111.428833,951.559998 C1119.768188,955.125854 1127.982788,959.032959 1136.489380,962.141052 C1142.453369,964.320068 1148.815674,965.408936 1155.347900,967.657837 C1156.369507,968.106995 1157.364990,968.869202 1158.416870,968.957581 C1171.071777,970.020569 1183.720337,971.447876 1196.400146,971.855347 C1212.150757,972.361450 1227.929688,972.080627 1243.694336,971.924561 C1245.800781,971.903809 1247.894897,970.623291 1249.988281,969.993591 C1249.988281,969.993591 1249.933350,969.953918 1250.558838,969.958496 C1251.032593,969.613525 1251.506226,969.268494 1251.971191,968.994446 M500.989166,934.672302 C504.189026,938.478943 507.241638,942.425659 510.662628,946.021912 C511.994232,947.421814 514.156311,948.031738 516.565491,949.280090 C525.130615,953.450195 533.695679,957.620239 542.664551,961.905090 C542.664551,961.905090 543.041443,962.089905 543.143005,962.795227 C545.678955,963.855225 548.132202,965.225464 550.763611,965.927002 C576.078979,972.674866 601.991455,972.024963 627.850159,971.928955 C628.578918,971.926270 629.305420,971.309814 630.732544,970.989319 C631.197266,971.025513 631.662048,971.061646 632.582336,971.624023 C636.135376,971.751160 639.691162,972.038147 643.241028,971.977966 C659.337646,971.705078 675.435181,971.416748 691.525452,970.912964 C694.040039,970.834167 696.518799,969.614319 699.597839,968.355103 C705.656372,967.565125 711.769714,967.065125 717.763611,965.932922 C739.160706,961.891113 757.928833,952.752197 773.428772,937.135620 C787.075195,923.386658 795.739624,906.601868 802.894409,889.009338 C814.895935,859.499329 825.949646,829.662415 830.261108,797.806213 C831.995361,784.992554 829.115784,773.224548 822.877380,761.364441 C808.736023,739.695618 787.302917,730.319824 762.517639,725.312439 C760.519409,724.564758 758.578796,723.499634 756.512939,723.124878 C747.991150,721.579163 739.431335,720.242737 730.754272,718.094727 C725.774597,717.371582 720.816833,716.371155 715.811279,715.974976 C697.650452,714.537781 679.473267,713.309082 661.303284,711.987122 C657.673157,711.723083 654.041565,711.120239 650.422363,711.200562 C648.277588,711.248108 646.155701,712.327087 643.416992,713.177063 C642.279968,713.802307 641.142883,714.427612 639.537659,714.428894 C637.482727,713.955078 635.420593,713.039734 633.373962,713.073059 C597.667969,713.654602 561.953979,714.044373 526.265015,715.196899 C514.258057,715.584656 502.126831,717.082825 490.831635,721.936584 C479.741760,726.702271 471.517029,734.255005 468.773712,746.449280 C465.599670,760.558044 465.283478,774.786987 467.387665,789.585876 C467.583984,793.014038 467.576599,796.468262 468.012390,799.865723 C469.775208,813.608826 471.515900,827.358154 473.565430,841.060181 C475.882141,856.548401 478.599243,871.976379 480.995544,887.453186 C482.855255,899.464050 485.537567,911.255981 491.595551,921.880615 C494.101044,926.274780 497.878784,929.943542 501.031403,934.009338 C501.031403,934.009338 501.061340,933.936401 500.989166,934.672302 M1397.010010,1045.537598 C1397.331421,1041.578613 1397.896851,1037.621826 1397.930664,1033.660400 C1398.054199,1019.163147 1398.064575,1004.663940 1397.932983,990.167053 C1397.916504,988.364319 1397.278809,985.802673 1396.031494,985.016724 C1395.027100,984.383667 1392.438477,985.550781 1390.943115,986.520996 C1375.912109,996.271729 1359.891235,1003.779968 1342.453369,1008.048523 C1313.181885,1015.213989 1283.212769,1017.901489 1253.315308,1018.604553 C1220.106934,1019.385437 1186.716431,1021.342102 1153.594482,1016.856567 C1139.033203,1014.884705 1124.163452,1012.911865 1110.335693,1008.259155 C1077.669189,997.267883 1051.243286,977.141846 1030.976685,949.047791 C1011.169128,921.589966 998.284912,891.003845 988.862183,858.692139 C985.109680,845.824402 981.342041,832.743713 975.555542,820.736206 C966.306641,801.543579 951.364990,789.703003 928.488647,792.026611 C918.713623,793.019531 910.119751,797.162048 903.561218,804.326660 C893.239868,815.601868 888.069519,829.764282 883.200073,843.949829 C876.518921,863.412964 870.935364,883.318481 863.130920,902.315247 C850.950439,931.963562 833.623047,958.373474 809.024963,979.576233 C793.539490,992.924194 775.976746,1002.320923 756.645996,1008.640259 C736.631897,1015.182922 715.856750,1018.161560 695.041687,1018.690491 C664.777649,1019.459778 634.455078,1018.721741 604.178528,1017.873657 C588.645813,1017.438477 573.140198,1015.555786 557.655701,1013.995972 C535.485718,1011.762695 514.243225,1006.005493 494.454407,995.633484 C487.864502,992.179382 481.708801,987.855042 475.539490,983.656799 C472.105438,981.320007 470.644714,982.723511 470.046356,985.974731 C469.479065,989.057007 468.985657,992.229492 469.077789,995.343933 C469.603149,1013.102905 469.830536,1030.890747 471.087036,1048.602905 C472.550537,1069.232910 474.449951,1089.862305 477.101624,1110.370361 C480.635742,1137.703491 487.139435,1164.474854 495.151093,1190.824829 C506.900177,1229.466919 522.467590,1266.486694 543.540344,1301.060425 C560.881042,1329.510986 580.513733,1356.293945 603.862976,1380.073730 C615.819153,1392.250366 628.942566,1403.330688 641.985107,1414.379395 C663.209839,1432.359131 686.276245,1447.763672 710.813538,1460.840698 C746.182312,1479.690796 783.394531,1493.776245 822.510193,1502.673828 C848.884766,1508.673218 875.644592,1512.846924 902.603760,1513.712769 C937.445435,1514.831909 972.327820,1514.836060 1007.016907,1509.224487 C1033.426025,1504.952271 1059.497681,1499.509399 1084.966187,1491.425171 C1116.787964,1481.324341 1146.823364,1467.162598 1175.551514,1450.200928 C1205.866333,1432.302368 1233.543579,1410.854858 1258.767822,1386.413086 C1270.297363,1375.241089 1280.728760,1362.842773 1290.893921,1350.377441 C1306.772705,1330.905762 1320.454468,1309.850220 1332.512207,1287.817871 C1353.862671,1248.805298 1369.403564,1207.453003 1379.775024,1164.284180 C1384.561523,1144.361206 1387.940674,1124.045654 1390.897217,1103.753540 C1393.662231,1084.775146 1395.024902,1065.592285 1397.010010,1045.537598 M805.022278,319.498779 C797.723083,323.475952 790.351807,327.327118 783.137329,331.452484 C754.749023,347.685425 728.693848,367.174469 705.077698,389.700378 C690.169434,403.920502 675.774231,418.807129 662.371277,434.442596 C647.384460,451.925812 633.130737,470.128174 619.708008,488.842438 C591.430359,528.267761 568.026306,570.570618 548.118225,614.804565 C544.504150,622.834961 540.834595,630.852783 537.613281,639.042664 C535.782104,643.698059 536.843018,644.955322 541.358521,645.016846 C566.150085,645.354797 590.942932,645.617493 615.733398,646.022339 C623.364502,646.146912 630.990906,646.611633 638.617310,646.965210 C660.332214,647.971802 682.056885,648.817566 703.755676,650.099121 C714.654907,650.742798 725.536926,651.956726 736.371521,653.343750 C749.160889,654.980957 762.025024,656.453186 774.613586,659.137390 C792.254089,662.898682 809.990845,666.741150 827.079834,672.385620 C840.568787,676.841064 853.256897,683.833801 866.093872,690.121887 C882.022339,697.924255 899.119873,701.629883 916.448425,702.646057 C931.941528,703.554688 947.680420,702.430115 963.161133,700.789490 C978.893250,699.122131 993.762085,694.090088 1007.862793,686.337463 C1019.177307,680.116638 1031.129150,674.678528 1043.364380,670.585815 C1070.158081,661.623535 1097.852783,656.514465 1126.010986,653.907410 C1145.290283,652.122559 1164.514282,649.708618 1183.808350,648.128296 C1198.022461,646.964050 1212.304199,646.512695 1226.565918,646.070068 C1243.853149,645.533447 1261.149902,645.218018 1278.444946,645.034851 C1294.273926,644.867188 1310.106323,644.956604 1325.936768,645.038574 C1329.762207,645.058350 1331.894653,644.143311 1330.144531,639.831116 C1326.845825,631.703491 1324.037231,623.338318 1320.196655,615.476501 C1309.175903,592.916626 1298.768188,569.963013 1286.189941,548.283752 C1272.709473,525.049622 1257.958252,502.410187 1242.059082,480.761688 C1225.688477,458.471313 1208.146729,436.884705 1189.514282,416.451935 C1166.652954,391.381653 1140.454346,369.878143 1112.846924,349.971466 C1085.629639,330.346161 1056.621216,314.615448 1024.895264,303.879852 C1003.793091,296.739136 982.214539,292.067871 959.957458,289.694519 C938.988953,287.458557 918.188049,287.454742 897.427002,290.227051 C865.220215,294.527771 834.813843,304.902802 805.022278,319.498779 z"/>
  <path fill="#757473" opacity="1.000000" stroke="none" d=" M762.971252,725.830688 C787.302917,730.319824 808.736023,739.695618 822.682983,761.820801 C819.327393,765.674805 816.189880,769.094849 813.000793,772.466125 C796.540344,789.867371 779.976013,807.171387 763.617859,824.668152 C736.696411,853.463562 709.898682,882.374695 683.062134,911.249451 C669.364563,925.987366 655.695923,940.752319 641.782288,955.744263 C641.276184,956.329895 641.001953,956.676392 640.494873,957.113647 C639.846558,957.710754 639.431091,958.217041 638.779785,958.889832 C638.344238,959.375305 638.144531,959.694397 637.978394,960.013306 C638.011902,960.013184 638.015869,959.946228 637.730591,960.057678 C637.146179,960.449036 636.847107,960.728943 636.319946,961.137573 C635.392578,962.039124 634.693298,962.811829 633.747070,963.844116 C633.315918,964.736511 633.131714,965.369385 632.976196,966.002686 C633.004883,966.003235 632.991516,965.947388 632.663391,965.904358 C632.205872,966.236938 632.076538,966.612488 631.974060,966.994263 C632.000977,967.000488 631.987305,966.946960 631.659790,966.904602 C631.203796,967.236694 631.075378,967.611206 630.973633,967.992798 C631.000305,967.999939 630.985046,967.946838 630.657288,967.903381 C630.201965,968.234497 630.074402,968.609070 629.974548,968.989624 C630.002258,968.995544 629.969299,968.949341 629.546021,968.912109 C627.047852,969.251892 624.970520,969.969604 622.898560,969.954346 C596.044861,969.756531 569.241028,968.958862 543.041443,962.089905 C543.041443,962.089905 542.664551,961.905090 542.569824,961.559570 C549.314514,954.003662 556.133911,946.773987 562.997742,939.586853 C577.934082,923.946899 592.955688,908.387878 607.825012,892.684631 C622.799988,876.869995 637.649597,860.936462 652.523682,845.026550 C671.256287,824.989136 689.933228,804.899597 708.682129,784.877380 C720.503845,772.252869 732.497131,759.788147 744.249878,747.100220 C750.666260,740.173340 756.741943,732.930847 762.971252,725.830688 z"/>
  <path fill="#757473" opacity="1.000000" stroke="none" d=" M1110.994263,951.023010 C1095.362305,941.249817 1083.618408,927.900269 1075.275269,911.580566 C1072.517334,906.185730 1070.524292,900.399902 1068.610107,894.362061 C1069.687378,893.422485 1070.420532,892.991516 1070.972900,892.393494 C1082.006714,880.447510 1092.935059,868.403015 1104.059082,856.541870 C1116.896362,842.853943 1129.903198,829.325012 1142.834961,815.725708 C1162.175537,795.386780 1181.476440,775.010010 1200.869141,754.720886 C1212.351318,742.707764 1223.995850,730.849792 1235.514771,718.871460 C1236.878784,717.453003 1237.909424,715.713867 1239.094482,714.123352 C1262.926758,714.119629 1286.759277,714.049866 1310.591064,714.155701 C1317.041382,714.184326 1323.489136,714.743958 1330.282959,715.383545 C1329.646973,717.044067 1328.792725,718.500061 1327.665527,719.699524 C1316.511719,731.567810 1305.304810,743.386230 1294.128052,755.232971 C1277.819092,772.519592 1261.525513,789.820618 1245.220459,807.110596 C1222.985718,830.688416 1200.778320,854.291931 1178.497559,877.826050 C1163.410645,893.761475 1148.087402,909.474976 1133.126709,925.527039 C1125.458496,933.754761 1118.353760,942.507568 1110.994263,951.023010 z"/>
  <path fill="#757473" opacity="1.000000" stroke="none" d=" M640.005859,715.052856 C641.142883,714.427612 642.279968,713.802307 644.176270,713.106445 C673.284180,715.032471 701.632812,717.028992 729.869629,719.347046 C728.242737,721.846191 726.971191,724.252808 725.173218,726.164368 C712.633728,739.496399 699.988892,752.729370 687.370544,765.987183 C674.290710,779.729858 661.207214,793.469055 648.117126,807.201965 C627.447510,828.886719 606.803589,850.596069 586.087708,872.236572 C567.554688,891.596680 548.908081,910.847961 530.379761,930.212524 C525.098022,935.732666 520.054016,941.480347 514.602173,946.973755 C509.889374,942.527954 505.475342,938.232178 501.061340,933.936401 C501.061340,933.936401 501.031403,934.009338 501.029907,933.624451 C492.411530,921.156799 487.024780,907.700012 484.467957,893.152588 C483.775024,889.210144 484.154297,885.079224 484.024109,881.015747 C484.006744,880.996582 484.019714,881.046204 484.293518,881.003418 C484.726959,880.645569 484.886597,880.330444 485.022552,880.006897 C484.998871,879.998474 485.014862,880.046082 485.284729,879.994629 C485.718353,879.632812 485.882111,879.322510 486.021881,879.004761 C485.997864,878.997437 486.011719,879.045776 486.278839,878.988892 C486.712463,878.624268 486.878967,878.316528 487.021301,878.002869 C486.997162,877.996948 487.008301,878.045410 487.272827,877.983521 C487.708557,877.615845 487.879730,877.309937 488.023621,876.999146 C487.996368,876.994141 488.001221,877.049316 488.256958,876.969482 C488.693329,876.592285 488.873962,876.294983 489.024231,875.995239 C488.993896,875.992737 488.996094,876.053589 489.247437,875.963989 C489.684875,875.580750 489.870972,875.287231 490.024628,874.991455 C489.992157,874.989197 489.987701,875.054138 490.259796,874.945435 C490.802582,874.554138 491.073242,874.271606 491.570496,873.881714 C492.196564,873.253967 492.596100,872.733582 493.220459,871.979980 C493.647827,871.155151 493.850403,870.563477 494.015350,869.976929 C493.977692,869.981934 493.979462,870.057861 494.231995,870.094727 C494.647095,870.081421 494.809692,870.031250 495.285034,869.855103 C509.620605,854.454346 523.561707,839.103577 537.687927,823.924988 C553.635925,806.789062 569.712402,789.772095 585.803711,772.770142 C600.189087,757.570740 614.698486,742.488708 629.090576,727.295532 C632.848755,723.328125 636.373779,719.139771 640.005859,715.052856 z"/>
  <path fill="#757473" opacity="1.000000" stroke="none" d=" M1382.967285,727.818237 C1383.892578,727.965271 1384.817749,728.112305 1386.065308,728.535828 C1386.713013,729.379211 1386.928955,730.059143 1387.380127,730.496216 C1395.054199,737.931580 1399.070435,747.083679 1399.170410,757.656128 C1399.286377,769.926819 1399.073730,782.217834 1398.441650,794.471069 C1398.121704,800.673645 1396.564087,806.812317 1395.249390,813.034058 C1377.337158,831.876770 1359.726074,850.650696 1342.153076,869.460205 C1333.759888,878.444092 1325.383179,887.444458 1317.096680,896.526428 C1297.365967,918.151123 1277.693359,939.828796 1257.686035,961.634155 C1256.900269,962.514465 1256.425659,963.245728 1255.974976,963.989014 C1255.999023,964.001160 1255.978760,963.951599 1255.703003,963.991699 C1255.268677,964.348816 1255.109985,964.665710 1254.975952,964.990967 C1255.000488,964.999329 1254.976074,964.953369 1254.678223,965.018127 C1253.904785,965.715271 1253.429321,966.347717 1252.976929,966.990051 C1253.000000,967.000000 1252.974487,966.956909 1252.667480,967.083984 C1252.212891,967.789856 1252.065186,968.368652 1251.917358,968.947388 C1251.917358,968.947388 1251.971191,968.994446 1251.664062,968.821106 C1250.882324,969.083191 1250.407837,969.518555 1249.933350,969.953918 C1249.933350,969.953918 1249.988281,969.993591 1249.521729,969.940430 C1225.616455,969.546448 1202.175537,969.308044 1178.740479,968.797058 C1172.453247,968.660034 1166.183960,967.692444 1160.046143,966.791992 C1173.173828,952.451294 1186.112427,938.378418 1199.163086,924.410156 C1214.830322,907.641418 1230.591553,890.960388 1246.314941,874.244080 C1262.152222,857.406616 1277.951904,840.533325 1293.842896,823.746765 C1313.856812,802.605042 1333.973022,781.560242 1353.991699,760.423157 C1363.137939,750.765991 1372.177368,741.007385 1381.198120,731.232666 C1382.036621,730.324158 1382.389038,728.967041 1382.967285,727.818237 z"/>
  <path fill="#494A49" opacity="1.000000" stroke="none" d=" M1238.619995,714.065796 C1237.909424,715.713867 1236.878784,717.453003 1235.514771,718.871460 C1223.995850,730.849792 1212.351318,742.707764 1200.869141,754.720886 C1181.476440,775.010010 1162.175537,795.386780 1142.834961,815.725708 C1129.903198,829.325012 1116.896362,842.853943 1104.059082,856.541870 C1092.935059,868.403015 1082.006714,880.447510 1070.972900,892.393494 C1070.420532,892.991516 1069.687378,893.422485 1068.741821,893.991699 C1067.223877,892.882507 1065.486450,891.939453 1064.858521,890.509216 C1055.094727,868.271729 1047.129395,845.403809 1042.091797,821.622620 C1039.936768,811.449097 1038.049316,801.141907 1037.134766,790.798706 C1035.289429,769.929810 1045.043579,754.396606 1061.317505,742.419434 C1076.781494,731.038269 1094.648071,725.605225 1113.195190,722.001465 C1133.083252,718.137085 1153.198486,716.508545 1173.424683,715.946289 C1194.999634,715.346497 1216.572021,714.658081 1238.619995,714.065796 z"/>
  <path fill="#484948" opacity="1.000000" stroke="none" d=" M639.015625,958.723389 C639.431091,958.217041 639.846558,957.710754 640.828735,956.984314 C641.601685,956.344482 641.807983,955.924805 642.014282,955.505005 C655.695923,940.752319 669.364563,925.987366 683.062134,911.249451 C709.898682,882.374695 736.696411,853.463562 763.617859,824.668152 C779.976013,807.171387 796.540344,789.867371 813.000793,772.466125 C816.189880,769.094849 819.327393,765.674805 822.805725,762.146301 C829.115784,773.224548 831.995361,784.992554 830.261108,797.806213 C825.949646,829.662415 814.895935,859.499329 802.894409,889.009338 C795.739624,906.601868 787.075195,923.386658 773.428772,937.135620 C757.928833,952.752197 739.160706,961.891113 717.763611,965.932922 C711.769714,967.065125 705.656372,967.565125 698.836792,968.644897 C676.092712,969.655762 654.109741,970.376831 632.126770,971.097839 C631.662048,971.061646 631.197266,971.025513 630.355957,970.646606 C629.976013,969.852356 629.972656,969.400879 629.969299,968.949341 C629.969299,968.949341 630.002258,968.995544 630.233032,968.918823 C630.637512,968.543701 630.811279,968.245239 630.985046,967.946838 C630.985046,967.946838 631.000305,967.999939 631.229858,967.918213 C631.635315,967.539917 631.811279,967.243408 631.987305,966.946899 C631.987305,966.946960 632.000977,967.000488 632.227051,966.914795 C632.632568,966.535278 632.812073,966.241333 632.991577,965.947388 C632.991516,965.947388 633.004883,966.003235 633.287048,965.821716 C633.710815,964.955017 633.852417,964.269775 633.994019,963.584595 C634.693298,962.811829 635.392578,962.039124 636.645142,961.080505 C637.470886,960.578491 637.743408,960.262329 638.015869,959.946228 C638.015869,959.946228 638.011902,960.013184 638.261841,959.908325 C638.679749,959.443420 638.847717,959.083435 639.015625,958.723389 z"/>
  <path fill="#494A49" opacity="1.000000" stroke="none" d=" M1382.804688,727.526550 C1382.389038,728.967041 1382.036621,730.324158 1381.198120,731.232666 C1372.177368,741.007385 1363.137939,750.765991 1353.991699,760.423157 C1333.973022,781.560242 1313.856812,802.605042 1293.842896,823.746765 C1277.951904,840.533325 1262.152222,857.406616 1246.314941,874.244080 C1230.591553,890.960388 1214.830322,907.641418 1199.163086,924.410156 C1186.112427,938.378418 1173.173828,952.451294 1159.638672,966.794250 C1157.727783,967.068665 1156.363892,967.026611 1155.000000,966.984619 C1148.815674,965.408936 1142.453369,964.320068 1136.489380,962.141052 C1127.982788,959.032959 1119.768188,955.125854 1111.211548,951.291504 C1118.353760,942.507568 1125.458496,933.754761 1133.126709,925.527039 C1148.087402,909.474976 1163.410645,893.761475 1178.497559,877.826050 C1200.778320,854.291931 1222.985718,830.688416 1245.220459,807.110596 C1261.525513,789.820618 1277.819092,772.519592 1294.128052,755.232971 C1305.304810,743.386230 1316.511719,731.567810 1327.665527,719.699524 C1328.792725,718.500061 1329.646973,717.044067 1330.740967,715.408142 C1347.470703,716.376953 1363.802246,719.064697 1379.454468,725.026917 C1380.627197,725.473694 1381.584595,726.485657 1382.804688,727.526550 z"/>
  <path fill="#494A49" opacity="1.000000" stroke="none" d=" M639.771729,714.740845 C636.373779,719.139771 632.848755,723.328125 629.090576,727.295532 C614.698486,742.488708 600.189087,757.570740 585.803711,772.770142 C569.712402,789.772095 553.635925,806.789062 537.687927,823.924988 C523.561707,839.103577 509.620605,854.454346 495.184387,869.701538 C494.507141,869.801880 494.243286,869.929871 493.979462,870.057861 C493.979462,870.057861 493.977692,869.981934 493.755066,870.172485 C493.353516,870.979736 493.174561,871.596497 492.995605,872.213196 C492.596100,872.733582 492.196564,873.253967 491.263977,873.947876 C490.483185,874.432312 490.235443,874.743225 489.987701,875.054138 C489.987701,875.054138 489.992157,874.989197 489.757751,875.060303 C489.347626,875.438782 489.171875,875.746216 488.996094,876.053589 C488.996094,876.053589 488.993896,875.992737 488.752991,876.054199 C488.341797,876.426941 488.171509,876.738098 488.001221,877.049316 C488.001221,877.049316 487.996368,876.994141 487.744293,877.041870 C487.330933,877.408142 487.169617,877.726807 487.008301,878.045410 C487.008301,878.045410 486.997162,877.996948 486.739960,878.039978 C486.325745,878.403931 486.168732,878.724854 486.011719,879.045776 C486.011719,879.045776 485.997864,878.997437 485.737335,879.034973 C485.322815,879.397034 485.168823,879.721558 485.014832,880.046082 C485.014862,880.046082 484.998871,879.998474 484.735626,880.031799 C484.321503,880.392151 484.170593,880.719177 484.019714,881.046204 C484.019714,881.046204 484.006744,880.996582 483.661987,880.895508 C482.809448,879.866272 482.033142,878.991577 481.836456,878.001648 C480.325775,870.398865 478.688904,862.809509 477.539734,855.148682 C474.236725,833.129211 471.145050,811.078125 467.970276,789.039429 C465.283478,774.786987 465.599670,760.558044 468.773712,746.449280 C471.517029,734.255005 479.741760,726.702271 490.831635,721.936584 C502.126831,717.082825 514.258057,715.584656 526.265015,715.196899 C561.953979,714.044373 597.667969,713.654602 633.373962,713.073059 C635.420593,713.039734 637.482727,713.955078 639.771729,714.740845 z"/>
  <path fill="#494949" opacity="1.000000" stroke="none" d=" M514.901001,947.123718 C520.054016,941.480347 525.098022,935.732666 530.379761,930.212524 C548.908081,910.847961 567.554688,891.596680 586.087708,872.236572 C606.803589,850.596069 627.447510,828.886719 648.117126,807.201965 C661.207214,793.469055 674.290710,779.729858 687.370544,765.987183 C699.988892,752.729370 712.633728,739.496399 725.173218,726.164368 C726.971191,724.252808 728.242737,721.846191 730.093750,719.289124 C730.429688,718.909607 730.885498,718.829346 730.885498,718.829346 C739.431335,720.242737 747.991150,721.579163 756.512939,723.124878 C758.578796,723.499634 760.519409,724.564758 762.744446,725.571533 C756.741943,732.930847 750.666260,740.173340 744.249878,747.100220 C732.497131,759.788147 720.503845,772.252869 708.682129,784.877380 C689.933228,804.899597 671.256287,824.989136 652.523682,845.026550 C637.649597,860.936462 622.799988,876.869995 607.825012,892.684631 C592.955688,908.387878 577.934082,923.946899 562.997742,939.586853 C556.133911,946.773987 549.314514,954.003662 542.367920,961.502197 C533.695679,957.620239 525.130615,953.450195 516.166870,948.885010 C515.479187,948.034546 515.190063,947.579163 514.901001,947.123718 z"/>
  <path fill="#484948" opacity="1.000000" stroke="none" d=" M1257.997314,961.485168 C1277.693359,939.828796 1297.365967,918.151123 1317.096680,896.526428 C1325.383179,887.444458 1333.759888,878.444092 1342.153076,869.460205 C1359.726074,850.650696 1377.337158,831.876770 1395.579834,813.137207 C1396.485718,813.789490 1396.744385,814.392883 1397.002930,814.996216 C1395.335938,826.781799 1393.795288,838.586914 1391.975586,850.348877 C1388.345337,873.815247 1383.942993,897.120972 1373.982666,918.904846 C1361.852783,945.433289 1340.205933,959.946838 1312.273560,964.692688 C1294.545044,967.704895 1276.410645,968.338684 1258.451660,969.966187 C1256.835815,970.112549 1255.171265,969.721985 1253.310913,968.937134 C1253.053101,967.848022 1253.013794,967.402466 1252.974487,966.956909 C1252.974487,966.956909 1253.000000,967.000000 1253.327881,967.034973 C1254.095825,966.364441 1254.536011,965.658936 1254.976074,964.953369 C1254.976074,964.953369 1255.000488,964.999329 1255.270264,964.978027 C1255.686157,964.621643 1255.832397,964.286621 1255.978760,963.951599 C1255.978760,963.951599 1255.999023,964.001160 1256.355957,963.990845 C1257.140991,963.148804 1257.569214,962.317017 1257.997314,961.485168 z"/>
  <path fill="#121010" opacity="1.000000" stroke="none" d=" M1397.007446,1046.018555 C1395.024902,1065.592285 1393.662231,1084.775146 1390.897217,1103.753540 C1387.940674,1124.045654 1384.561523,1144.361206 1379.775024,1164.284180 C1369.403564,1207.453003 1353.862671,1248.805298 1332.512207,1287.817871 C1320.454468,1309.850220 1306.772705,1330.905762 1290.893921,1350.377441 C1280.728760,1362.842773 1270.297363,1375.241089 1258.767822,1386.413086 C1233.543579,1410.854858 1205.866333,1432.302368 1175.551514,1450.200928 C1146.823364,1467.162598 1116.787964,1481.324341 1084.966187,1491.425171 C1059.497681,1499.509399 1033.426025,1504.952271 1007.016907,1509.224487 C972.327820,1514.836060 937.445435,1514.831909 902.603760,1513.712769 C875.644592,1512.846924 848.884766,1508.673218 822.510193,1502.673828 C783.394531,1493.776245 746.182312,1479.690796 710.813538,1460.840698 C686.276245,1447.763672 663.209839,1432.359131 641.985107,1414.379395 C628.942566,1403.330688 615.819153,1392.250366 603.862976,1380.073730 C580.513733,1356.293945 560.881042,1329.510986 543.540344,1301.060425 C522.467590,1266.486694 506.900177,1229.466919 495.151093,1190.824829 C487.139435,1164.474854 480.635742,1137.703491 477.101624,1110.370361 C474.449951,1089.862305 472.550537,1069.232910 471.087036,1048.602905 C469.830536,1030.890747 469.603149,1013.102905 469.077789,995.343933 C468.985657,992.229492 469.479065,989.057007 470.046356,985.974731 C470.644714,982.723511 472.105438,981.320007 475.539490,983.656799 C481.708801,987.855042 487.864502,992.179382 494.454407,995.633484 C514.243225,1006.005493 535.485718,1011.762695 557.655701,1013.995972 C573.140198,1015.555786 588.645813,1017.438477 604.178528,1017.873657 C634.455078,1018.721741 664.777649,1019.459778 695.041687,1018.690491 C715.856750,1018.161560 736.631897,1015.182922 756.645996,1008.640259 C775.976746,1002.320923 793.539490,992.924194 809.024963,979.576233 C833.623047,958.373474 850.950439,931.963562 863.130920,902.315247 C870.935364,883.318481 876.518921,863.412964 883.200073,843.949829 C888.069519,829.764282 893.239868,815.601868 903.561218,804.326660 C910.119751,797.162048 918.713623,793.019531 928.488647,792.026611 C951.364990,789.703003 966.306641,801.543579 975.555542,820.736206 C981.342041,832.743713 985.109680,845.824402 988.862183,858.692139 C998.284912,891.003845 1011.169128,921.589966 1030.976685,949.047791 C1051.243286,977.141846 1077.669189,997.267883 1110.335693,1008.259155 C1124.163452,1012.911865 1139.033203,1014.884705 1153.594482,1016.856567 C1186.716431,1021.342102 1220.106934,1019.385437 1253.315308,1018.604553 C1283.212769,1017.901489 1313.181885,1015.213989 1342.453369,1008.048523 C1359.891235,1003.779968 1375.912109,996.271729 1390.943115,986.520996 C1392.438477,985.550781 1395.027100,984.383667 1396.031494,985.016724 C1397.278809,985.802673 1397.916504,988.364319 1397.932983,990.167053 C1398.064575,1004.663940 1398.054199,1019.163147 1397.930664,1033.660400 C1397.896851,1037.621826 1397.331421,1041.578613 1397.007446,1046.018555 M1195.490967,1434.681763 C1196.165039,1434.110352 1196.838989,1433.539062 1197.782471,1432.884644 C1197.782471,1432.884644 1198.014404,1432.724243 1198.603394,1432.609375 C1200.856567,1430.898193 1203.109741,1429.187012 1205.441162,1427.456177 C1205.441162,1427.456177 1205.520142,1427.472412 1206.088135,1427.164307 C1208.163208,1425.539185 1210.238403,1423.914062 1212.153564,1422.280640 C1212.153564,1422.280640 1212.288574,1422.366821 1212.888184,1422.133179 C1214.030273,1421.183838 1215.172363,1420.234497 1216.152222,1419.272583 C1216.152222,1419.272583 1216.288208,1419.361816 1216.898438,1419.124268 C1218.390869,1417.917969 1219.883423,1416.711792 1221.456299,1415.461060 C1221.456299,1415.461060 1221.547974,1415.466431 1222.078369,1415.152344 C1223.254517,1414.118286 1224.430786,1413.084351 1225.855713,1411.915039 C1225.855713,1411.915039 1226.075439,1411.736694 1226.653076,1411.618286 C1234.619019,1404.426270 1242.584961,1397.234253 1251.114380,1389.787720 C1253.429810,1387.395996 1255.745239,1385.004272 1258.684814,1382.252441 C1262.691040,1377.876953 1266.697266,1373.501465 1271.119385,1368.989014 C1271.428345,1368.520020 1271.737183,1368.051025 1272.651489,1367.190063 C1274.991455,1364.492065 1277.331543,1361.793945 1279.945435,1359.062500 C1280.124756,1358.926880 1280.157471,1358.762207 1280.645142,1358.151611 C1281.669312,1356.811157 1282.693481,1355.470703 1284.133911,1353.938477 C1284.436157,1353.431885 1284.738403,1352.925293 1285.615967,1352.028687 C1286.839844,1350.418579 1288.063721,1348.808350 1289.182129,1347.153809 C1289.182129,1347.153809 1289.206177,1347.265625 1289.790283,1346.941895 C1290.779297,1345.615356 1291.768188,1344.288940 1292.900391,1342.767090 C1292.900391,1342.767090 1293.047241,1342.574463 1293.560303,1342.314087 C1294.297852,1341.199463 1295.035278,1340.084717 1295.898438,1338.764648 C1295.898438,1338.764648 1296.024902,1338.559814 1296.529297,1338.285889 C1297.268555,1337.172607 1298.007812,1336.059448 1298.858887,1334.744629 C1298.858887,1334.744629 1298.970703,1334.543091 1299.447754,1334.243774 C1300.094238,1333.266357 1300.740723,1332.289062 1301.310425,1331.145752 C1301.310425,1331.145752 1301.314453,1331.328491 1301.856689,1330.981445 C1302.682617,1329.734375 1303.508667,1328.487183 1304.232910,1327.175293 C1304.232910,1327.175293 1304.245972,1327.295166 1304.783081,1326.989502 C1305.346680,1326.144287 1305.910278,1325.299072 1306.445190,1324.408447 C1306.445190,1324.408447 1306.447266,1324.354614 1306.973267,1323.952759 C1308.232910,1321.949341 1309.492554,1319.945923 1310.874512,1317.727783 C1310.874512,1317.727783 1310.963989,1317.497437 1311.416992,1317.193359 C1311.858398,1316.421021 1312.299805,1315.648682 1312.841064,1314.678345 C1312.841064,1314.678345 1312.933716,1314.476929 1313.374634,1314.159180 C1313.822144,1313.394409 1314.269653,1312.629639 1314.820923,1311.667603 C1314.820923,1311.667603 1314.906250,1311.461792 1315.382935,1311.081055 C1317.846191,1307.035645 1320.309448,1302.990356 1322.878052,1298.726196 C1322.878052,1298.726196 1322.950439,1298.494263 1323.445801,1298.131470 C1354.191406,1246.395264 1372.756592,1190.219604 1383.997559,1131.414062 C1392.876343,1084.965820 1395.218994,1037.953613 1395.607178,990.793030 C1395.618530,989.423340 1395.362915,988.051514 1395.153687,985.864502 C1391.821533,988.279541 1389.179199,990.194641 1386.318726,992.178589 C1386.318726,992.178589 1386.113770,992.279785 1385.502930,992.409851 C1383.523682,993.643433 1381.544312,994.877075 1379.625244,996.110352 C1379.625244,996.110352 1379.591675,996.059326 1378.864258,996.210754 C1374.830078,998.170837 1370.845581,1000.241882 1366.753662,1002.072998 C1341.579102,1013.338379 1314.706421,1017.105164 1287.596924,1018.823730 C1244.538452,1021.553589 1201.458984,1023.868286 1158.279541,1020.094238 C1129.507324,1017.579468 1102.366455,1010.421448 1077.324341,995.793213 C1045.682739,977.309814 1024.621216,949.508179 1008.164612,917.613220 C995.739502,893.531738 988.766357,867.516174 980.780518,841.814941 C977.667542,831.796265 973.252197,821.870178 967.703125,812.979858 C951.948303,787.738953 913.570618,787.220764 898.017944,815.705505 C890.375244,829.703003 885.251404,844.543213 881.047180,859.762939 C870.427490,898.207153 854.184082,933.779114 827.945129,964.230957 C806.235901,989.425903 779.127197,1005.854065 746.885986,1014.223694 C728.012146,1019.123169 708.811462,1020.484497 689.518311,1021.233521 C641.842346,1023.084412 594.230042,1022.535767 546.984741,1014.968140 C521.095642,1010.821350 496.676819,1002.551392 475.463226,986.452637 C474.888824,986.016785 474.115753,985.842651 472.959015,985.339233 C472.790863,987.503113 472.576996,989.115906 472.552887,990.731628 C471.982605,1028.921875 473.371307,1066.985107 478.793335,1104.870239 C487.751556,1167.463867 505.722107,1227.121216 535.942017,1282.846436 C560.215454,1327.606323 590.969971,1367.253418 629.602539,1400.613770 C629.602539,1400.613770 629.603271,1400.565063 629.969177,1401.082275 C632.592712,1403.300781 635.216248,1405.519165 637.900757,1407.968384 C637.900757,1407.968384 638.329163,1408.111694 638.675354,1408.729126 C640.271118,1409.976807 641.866882,1411.224609 643.548828,1412.458984 C643.548828,1412.458984 643.619568,1412.510010 643.985962,1413.013672 C645.466736,1414.168335 646.947510,1415.322998 648.531128,1416.484131 C648.531128,1416.484131 648.618164,1416.539307 648.987854,1417.038940 C650.517822,1418.172607 652.047729,1419.306152 653.585632,1420.381470 C653.585632,1420.381470 653.639282,1420.405762 653.996399,1420.920776 C655.181824,1421.765625 656.367310,1422.610474 657.575806,1423.385620 C657.575806,1423.385620 657.632080,1423.432861 657.987976,1423.941162 C659.151489,1424.787231 660.315063,1425.633179 661.558960,1426.462769 C661.558960,1426.462769 661.637939,1426.485352 662.016724,1426.976562 C663.250671,1427.773560 664.484619,1428.570679 665.842468,1429.286133 C665.842468,1429.286133 665.694153,1429.286377 666.040833,1429.830811 C667.067017,1430.475830 668.093140,1431.120850 669.307922,1431.849976 C669.307922,1431.849976 669.479431,1431.964966 669.811462,1432.463501 C672.760315,1434.444458 675.709106,1436.425415 678.793213,1438.392578 C678.793213,1438.392578 678.671265,1438.332520 679.025146,1438.848755 C679.934326,1439.350952 680.843567,1439.853149 681.830017,1440.265137 C681.830017,1440.265137 681.711365,1440.258789 682.093811,1440.824585 C683.759460,1441.804565 685.425049,1442.784424 687.294495,1443.864624 C687.294495,1443.864624 687.500244,1443.960815 687.805542,1444.411255 C688.578979,1444.851318 689.352356,1445.291382 690.326782,1445.835449 C690.326782,1445.835449 690.536682,1445.920410 690.905212,1446.398071 C692.301636,1447.181763 693.698120,1447.965332 695.307922,1448.854248 C695.307922,1448.854248 695.535706,1448.922485 695.905334,1449.397095 C697.306458,1450.176270 698.707581,1450.955444 700.319702,1451.840942 C700.319702,1451.840942 700.546631,1451.906982 700.925171,1452.373169 C702.319885,1453.153809 703.714539,1453.934326 705.322693,1454.831543 C705.322693,1454.831543 705.557922,1454.892822 705.964478,1455.364990 C765.794189,1488.789917 830.310181,1506.180908 898.374756,1510.785278 C948.506714,1514.176514 998.203125,1510.274292 1047.170776,1498.833984 C1060.676025,1495.678589 1073.865356,1491.170654 1087.186157,1487.534058 C1087.186157,1487.534058 1087.429321,1487.595947 1088.155029,1487.460571 C1091.589600,1486.269653 1095.126709,1485.311401 1098.441772,1483.849365 C1117.144165,1475.602051 1135.793213,1467.233398 1154.696411,1458.858154 C1154.696411,1458.858154 1154.916382,1458.760498 1155.552124,1458.689941 C1165.531738,1452.769897 1175.511353,1446.849854 1185.713013,1440.847412 C1185.713013,1440.847412 1185.921997,1440.736206 1186.492798,1440.632935 C1187.441772,1439.907959 1188.390625,1439.182983 1189.419800,1438.479126 C1189.419800,1438.479126 1189.501709,1438.492432 1189.979248,1438.260742 C1190.504395,1437.826172 1191.029541,1437.391602 1191.764771,1436.859985 C1191.764771,1436.859985 1191.972778,1436.758423 1192.500610,1436.697021 C1193.171997,1436.121338 1193.843384,1435.545654 1194.747437,1434.877197 C1194.747437,1434.877197 1194.963867,1434.750732 1195.490967,1434.681763 z"/>
  <path fill="#121010" opacity="1.000000" stroke="none" d=" M805.352783,319.323120 C834.813843,304.902802 865.220215,294.527771 897.427002,290.227051 C918.188049,287.454742 938.988953,287.458557 959.957458,289.694519 C982.214539,292.067871 1003.793091,296.739136 1024.895264,303.879852 C1056.621216,314.615448 1085.629639,330.346161 1112.846924,349.971466 C1140.454346,369.878143 1166.652954,391.381653 1189.514282,416.451935 C1208.146729,436.884705 1225.688477,458.471313 1242.059082,480.761688 C1257.958252,502.410187 1272.709473,525.049622 1286.189941,548.283752 C1298.768188,569.963013 1309.175903,592.916626 1320.196655,615.476501 C1324.037231,623.338318 1326.845825,631.703491 1330.144531,639.831116 C1331.894653,644.143311 1329.762207,645.058350 1325.936768,645.038574 C1310.106323,644.956604 1294.273926,644.867188 1278.444946,645.034851 C1261.149902,645.218018 1243.853149,645.533447 1226.565918,646.070068 C1212.304199,646.512695 1198.022461,646.964050 1183.808350,648.128296 C1164.514282,649.708618 1145.290283,652.122559 1126.010986,653.907410 C1097.852783,656.514465 1070.158081,661.623535 1043.364380,670.585815 C1031.129150,674.678528 1019.177307,680.116638 1007.862793,686.337463 C993.762085,694.090088 978.893250,699.122131 963.161133,700.789490 C947.680420,702.430115 931.941528,703.554688 916.448425,702.646057 C899.119873,701.629883 882.022339,697.924255 866.093872,690.121887 C853.256897,683.833801 840.568787,676.841064 827.079834,672.385620 C809.990845,666.741150 792.254089,662.898682 774.613586,659.137390 C762.025024,656.453186 749.160889,654.980957 736.371521,653.343750 C725.536926,651.956726 714.654907,650.742798 703.755676,650.099121 C682.056885,648.817566 660.332214,647.971802 638.617310,646.965210 C630.990906,646.611633 623.364502,646.146912 615.733398,646.022339 C590.942932,645.617493 566.150085,645.354797 541.358521,645.016846 C536.843018,644.955322 535.782104,643.698059 537.613281,639.042664 C540.834595,630.852783 544.504150,622.834961 548.118225,614.804565 C568.026306,570.570618 591.430359,528.267761 619.708008,488.842438 C633.130737,470.128174 647.384460,451.925812 662.371277,434.442596 C675.774231,418.807129 690.169434,403.920502 705.077698,389.700378 C728.693848,367.174469 754.749023,347.685425 783.137329,331.452484 C790.351807,327.327118 797.723083,323.475952 805.352783,319.323120 M1153.045166,384.906860 C1148.415649,381.025543 1143.786011,377.144226 1139.086182,373.024078 C1139.086182,373.024078 1138.630859,372.924866 1138.247314,372.315460 C1136.817993,371.285980 1135.388550,370.256531 1133.993530,369.222046 C1133.993530,369.222046 1134.020264,369.195038 1133.593262,368.670197 C1113.524170,352.651337 1092.310303,338.407806 1069.502563,326.517639 C1019.132935,300.258789 966.121704,286.740906 908.946716,291.909454 C881.866211,294.357513 855.909485,301.106873 830.780151,311.108307 C778.490845,331.919403 733.488037,363.784180 694.053040,403.515472 C634.355530,463.661530 588.085999,533.121155 552.985657,610.123108 C548.256592,620.497620 543.928223,631.054810 539.229065,641.957031 C540.803772,642.149719 541.576599,642.312683 542.352600,642.329407 C582.648621,643.197021 622.961609,643.586975 663.236023,645.045654 C700.023926,646.377930 736.688171,649.775269 772.998169,656.094971 C797.255798,660.316711 821.362366,665.293396 843.801758,676.019348 C854.135742,680.958923 864.031555,686.995728 874.696716,691.024109 C896.462219,699.245300 919.370483,701.633118 942.473633,700.611755 C967.177490,699.519592 990.493042,693.409973 1012.511597,681.352356 C1025.200806,674.403564 1039.137573,669.183533 1053.086548,665.188721 C1092.934937,653.776794 1133.972656,648.524841 1175.200806,646.311340 C1221.762695,643.811401 1268.432739,643.319824 1315.056641,641.986389 C1319.341797,641.863831 1323.633667,641.970032 1328.619995,641.970032 C1327.160767,638.521301 1325.891724,635.522034 1324.608887,632.552307 C1324.608887,632.552307 1324.580444,632.558228 1324.385010,631.891968 C1323.389038,629.843079 1322.393188,627.794128 1321.565430,625.694397 C1321.565430,625.694397 1321.584595,625.519836 1321.373291,624.840088 C1311.247192,603.984436 1302.057007,582.604553 1290.747070,562.411926 C1277.971436,539.602478 1263.290771,517.860168 1249.449707,495.580902 C1249.449707,495.580902 1249.465210,495.508820 1249.167969,494.919220 C1240.940552,483.820007 1232.713135,472.720764 1224.443970,461.552673 C1224.443970,461.552673 1224.462524,461.474335 1224.137695,460.912384 C1202.989624,433.572662 1179.838135,408.107971 1153.485596,385.508118 C1153.485596,385.508118 1153.403687,385.430023 1153.045166,384.906860 z"/>
  <path fill="#121010" opacity="1.000000" stroke="none" d=" M467.678955,789.312622 C471.145050,811.078125 474.236725,833.129211 477.539734,855.148682 C478.688904,862.809509 480.325775,870.398865 481.836456,878.001648 C482.033142,878.991577 482.809448,879.866272 483.679352,880.914612 C484.154297,885.079224 483.775024,889.210144 484.467957,893.152588 C487.024780,907.700012 492.411530,921.156799 501.053162,933.590881 C497.878784,929.943542 494.101044,926.274780 491.595551,921.880615 C485.537567,911.255981 482.855255,899.464050 480.995544,887.453186 C478.599243,871.976379 475.882141,856.548401 473.565430,841.060181 C471.515900,827.358154 469.775208,813.608826 468.012390,799.865723 C467.576599,796.468262 467.583984,793.014038 467.678955,789.312622 z"/>
  <path fill="#0C0B0C" opacity="1.000000" stroke="none" d=" M1397.336304,814.820435 C1396.744385,814.392883 1396.485718,813.789490 1395.896484,813.083008 C1396.564087,806.812317 1398.121704,800.673645 1398.441650,794.471069 C1399.073730,782.217834 1399.286377,769.926819 1399.170410,757.656128 C1399.070435,747.083679 1395.054199,737.931580 1387.380127,730.496216 C1386.928955,730.059143 1386.713013,729.379211 1386.402100,728.429321 C1387.948730,728.894714 1389.919067,729.388428 1390.940308,730.650269 C1396.654785,737.711548 1400.921875,745.541870 1401.908569,754.753296 C1404.007080,774.341675 1401.732178,793.713684 1398.762817,813.036011 C1398.673828,813.614624 1398.046143,814.110352 1397.336304,814.820435 z"/>
  <path fill="#0C0B0C" opacity="1.000000" stroke="none" d=" M629.546021,968.912109 C629.972656,969.400879 629.976013,969.852356 630.006226,970.641724 C629.305420,971.309814 628.578918,971.926270 627.850159,971.928955 C601.991455,972.024963 576.078979,972.674866 550.763611,965.927002 C548.132202,965.225464 545.678955,963.855225 543.092224,962.442566 C569.241028,968.958862 596.044861,969.756531 622.898560,969.954346 C624.970520,969.969604 627.047852,969.251892 629.546021,968.912109 z"/>
  <path fill="#0C0B0C" opacity="1.000000" stroke="none" d=" M1155.173950,967.321167 C1156.363892,967.026611 1157.727783,967.068665 1159.499023,967.108398 C1166.183960,967.692444 1172.453247,968.660034 1178.740479,968.797058 C1202.175537,969.308044 1225.616455,969.546448 1249.524902,969.906677 C1247.894897,970.623291 1245.800781,971.903809 1243.694336,971.924561 C1227.929688,972.080627 1212.150757,972.361450 1196.400146,971.855347 C1183.720337,971.447876 1171.071777,970.020569 1158.416870,968.957581 C1157.364990,968.869202 1156.369507,968.106995 1155.173950,967.321167 z"/>
  <path fill="#121010" opacity="1.000000" stroke="none" d=" M730.819885,718.462036 C730.885498,718.829346 730.429688,718.909607 730.205566,718.967529 C701.632812,717.028992 673.284180,715.032471 644.479553,712.989136 C646.155701,712.327087 648.277588,711.248108 650.422363,711.200562 C654.041565,711.120239 657.673157,711.723083 661.303284,711.987122 C679.473267,713.309082 697.650452,714.537781 715.811279,715.974976 C720.816833,716.371155 725.774597,717.371582 730.819885,718.462036 z"/>
  <path fill="#0C0B0C" opacity="1.000000" stroke="none" d=" M632.354553,971.360962 C654.109741,970.376831 676.092712,969.655762 698.544922,968.928467 C696.518799,969.614319 694.040039,970.834167 691.525452,970.912964 C675.435181,971.416748 659.337646,971.705078 643.241028,971.977966 C639.691162,972.038147 636.135376,971.751160 632.354553,971.360962 z"/>
  <path fill="#121010" opacity="1.000000" stroke="none" d=" M514.602173,946.973755 C515.190063,947.579163 515.479187,948.034546 515.854187,948.745728 C514.156311,948.031738 511.994232,947.421814 510.662628,946.021912 C507.241638,942.425659 504.189026,938.478943 501.025269,934.304321 C505.475342,938.232178 509.889374,942.527954 514.602173,946.973755 z"/>
  <path fill="#0C0B0C" opacity="1.000000" stroke="none" d=" M1252.667480,967.083984 C1253.013794,967.402466 1253.053101,967.848022 1253.022949,968.626831 C1252.781006,968.962158 1252.608276,968.964355 1252.176392,968.956970 C1252.065186,968.368652 1252.212891,967.789856 1252.667480,967.083984 z"/>
  <path fill="#0C0B0C" opacity="1.000000" stroke="none" d=" M1250.246094,969.956177 C1250.407837,969.518555 1250.882324,969.083191 1251.668457,968.785645 C1251.506226,969.268494 1251.032593,969.613525 1250.246094,969.956177 z"/>
  <path fill="#0C0B0C" opacity="1.000000" stroke="none" d=" M633.747070,963.844116 C633.852417,964.269775 633.710815,964.955017 633.258362,965.821167 C633.131714,965.369385 633.315918,964.736511 633.747070,963.844116 z"/>
  <path fill="#0C0B0C" opacity="1.000000" stroke="none" d=" M637.730591,960.057678 C637.743408,960.262329 637.470886,960.578491 636.873230,960.951660 C636.847107,960.728943 637.146179,960.449036 637.730591,960.057678 z"/>
  <path fill="#0C0B0C" opacity="1.000000" stroke="none" d=" M641.782349,955.744263 C641.807983,955.924805 641.601685,956.344482 641.061584,956.893555 C641.001953,956.676392 641.276184,956.329895 641.782349,955.744263 z"/>
  <path fill="#0C0B0C" opacity="1.000000" stroke="none" d=" M638.779785,958.889832 C638.847717,959.083435 638.679749,959.443420 638.228271,959.908447 C638.144531,959.694397 638.344238,959.375305 638.779785,958.889832 z"/>
  <path fill="#0C0B0C" opacity="1.000000" stroke="none" d=" M630.657288,967.903381 C630.811279,968.245239 630.637512,968.543701 630.205322,968.912842 C630.074402,968.609070 630.201965,968.234497 630.657288,967.903381 z"/>
  <path fill="#0C0B0C" opacity="1.000000" stroke="none" d=" M631.659729,966.904541 C631.811279,967.243408 631.635315,967.539917 631.203125,967.911011 C631.075378,967.611206 631.203796,967.236694 631.659729,966.904541 z"/>
  <path fill="#0C0B0C" opacity="1.000000" stroke="none" d=" M632.663452,965.904358 C632.812073,966.241333 632.632568,966.535278 632.200073,966.908630 C632.076538,966.612488 632.205872,966.236938 632.663452,965.904358 z"/>
  <path fill="#121010" opacity="1.000000" stroke="none" d=" M493.220398,871.979980 C493.174561,871.596497 493.353516,870.979736 493.792725,870.167480 C493.850403,870.563477 493.647827,871.155151 493.220398,871.979980 z"/>
  <path fill="#121010" opacity="1.000000" stroke="none" d=" M484.293518,881.003418 C484.170593,880.719177 484.321503,880.392151 484.759308,880.040222 C484.886597,880.330444 484.726959,880.645569 484.293518,881.003418 z"/>
  <path fill="#121010" opacity="1.000000" stroke="none" d=" M490.259796,874.945435 C490.235443,874.743225 490.483185,874.432312 491.037415,874.055298 C491.073242,874.271606 490.802582,874.554138 490.259796,874.945435 z"/>
  <path fill="#121010" opacity="1.000000" stroke="none" d=" M489.247437,875.963989 C489.171875,875.746216 489.347626,875.438782 489.790222,875.062500 C489.870972,875.287231 489.684875,875.580750 489.247437,875.963989 z"/>
  <path fill="#121010" opacity="1.000000" stroke="none" d=" M494.231995,870.094727 C494.243286,869.929871 494.507141,869.801880 494.871613,869.827515 C494.809692,870.031250 494.647095,870.081421 494.231995,870.094727 z"/>
  <path fill="#121010" opacity="1.000000" stroke="none" d=" M488.256958,876.969482 C488.171509,876.738098 488.341797,876.426941 488.783325,876.056702 C488.873962,876.294983 488.693329,876.592285 488.256958,876.969482 z"/>
  <path fill="#121010" opacity="1.000000" stroke="none" d=" M487.272827,877.983521 C487.169617,877.726807 487.330933,877.408142 487.771545,877.046814 C487.879730,877.309937 487.708557,877.615845 487.272827,877.983521 z"/>
  <path fill="#121010" opacity="1.000000" stroke="none" d=" M486.278809,878.988892 C486.168732,878.724854 486.325745,878.403931 486.764099,878.045898 C486.878967,878.316528 486.712463,878.624268 486.278809,878.988892 z"/>
  <path fill="#121010" opacity="1.000000" stroke="none" d=" M485.284698,879.994629 C485.168823,879.721558 485.322815,879.397034 485.761353,879.042358 C485.882111,879.322510 485.718353,879.632812 485.284698,879.994629 z"/>
  <path fill="#0C0B0C" opacity="1.000000" stroke="none" d=" M1257.686157,961.634216 C1257.569214,962.317017 1257.140991,963.148804 1256.331787,963.978760 C1256.425659,963.245728 1256.900269,962.514465 1257.686157,961.634216 z"/>
  <path fill="#0C0B0C" opacity="1.000000" stroke="none" d=" M1254.678223,965.018188 C1254.536011,965.658936 1254.095825,966.364441 1253.304810,967.025024 C1253.429321,966.347717 1253.904785,965.715271 1254.678223,965.018188 z"/>
  <path fill="#0C0B0C" opacity="1.000000" stroke="none" d=" M1255.703003,963.991699 C1255.832397,964.286621 1255.686157,964.621643 1255.245605,964.969666 C1255.109985,964.665710 1255.268677,964.348816 1255.703003,963.991699 z"/>
  <path fill="#FFECD1" opacity="1.000000" stroke="none" d=" M629.567444,1400.647827 C590.969971,1367.253418 560.215454,1327.606323 535.942017,1282.846436 C505.722107,1227.121216 487.751556,1167.463867 478.793335,1104.870239 C473.371307,1066.985107 471.982605,1028.921875 472.552887,990.731628 C472.576996,989.115906 472.790863,987.503113 472.959015,985.339233 C474.115753,985.842651 474.888824,986.016785 475.463226,986.452637 C496.676819,1002.551392 521.095642,1010.821350 546.984741,1014.968140 C594.230042,1022.535767 641.842346,1023.084412 689.518311,1021.233521 C708.811462,1020.484497 728.012146,1019.123169 746.885986,1014.223694 C779.127197,1005.854065 806.235901,989.425903 827.945129,964.230957 C854.184082,933.779114 870.427490,898.207153 881.047180,859.762939 C885.251404,844.543213 890.375244,829.703003 898.017944,815.705505 C913.570618,787.220764 951.948303,787.738953 967.703125,812.979858 C973.252197,821.870178 977.667542,831.796265 980.780518,841.814941 C988.766357,867.516174 995.739502,893.531738 1008.164612,917.613220 C1024.621216,949.508179 1045.682739,977.309814 1077.324341,995.793213 C1102.366455,1010.421448 1129.507324,1017.579468 1158.279541,1020.094238 C1201.458984,1023.868286 1244.538452,1021.553589 1287.596924,1018.823730 C1314.706421,1017.105164 1341.579102,1013.338379 1366.753662,1002.072998 C1370.845581,1000.241882 1374.830078,998.170837 1379.275879,996.526917 C1378.776611,997.722595 1378.014282,998.919189 1376.929443,999.427612 C1371.815186,1001.824707 1366.712646,1004.303772 1361.423828,1006.261780 C1339.351807,1014.433594 1316.323242,1018.304749 1293.055664,1020.940674 C1289.844360,1021.304443 1288.392212,1022.548523 1287.950562,1025.783813 C1286.451050,1036.766968 1284.656616,1047.709717 1283.091064,1058.684448 C1279.148315,1086.323730 1272.679443,1113.398438 1264.412842,1140.022339 C1254.967407,1170.443237 1242.427002,1199.546997 1226.483887,1227.194092 C1209.807617,1256.112671 1190.092041,1282.774536 1167.272217,1307.055176 C1143.606323,1332.236084 1116.807251,1353.671021 1087.516479,1372.082886 C1057.386963,1391.022095 1025.524414,1406.256348 992.015442,1418.075806 C969.454102,1426.033813 946.284729,1431.643921 922.820862,1436.412964 C895.716980,1441.921875 868.369385,1444.759644 840.863220,1444.730957 C819.182678,1444.708496 797.443237,1442.984375 775.841431,1440.874878 C750.701843,1438.420166 725.945190,1433.093506 702.253235,1424.361450 C678.736450,1415.693848 655.823730,1405.388062 632.636108,1395.824951 C631.019470,1395.158081 629.320801,1394.690186 627.327148,1394.017334 C628.277100,1396.828857 628.922241,1398.738403 629.567444,1400.647827 z"/>
  <path fill="#FFCC9B" opacity="1.000000" stroke="none" d=" M629.584961,1400.630859 C628.922241,1398.738403 628.277100,1396.828857 627.327148,1394.017334 C629.320801,1394.690186 631.019470,1395.158081 632.636108,1395.824951 C655.823730,1405.388062 678.736450,1415.693848 702.253235,1424.361450 C725.945190,1433.093506 750.701843,1438.420166 775.841431,1440.874878 C797.443237,1442.984375 819.182678,1444.708496 840.863220,1444.730957 C868.369385,1444.759644 895.716980,1441.921875 922.820862,1436.412964 C946.284729,1431.643921 969.454102,1426.033813 992.015442,1418.075806 C1025.524414,1406.256348 1057.386963,1391.022095 1087.516479,1372.082886 C1116.807251,1353.671021 1143.606323,1332.236084 1167.272217,1307.055176 C1190.092041,1282.774536 1209.807617,1256.112671 1226.483887,1227.194092 C1242.427002,1199.546997 1254.967407,1170.443237 1264.412842,1140.022339 C1272.679443,1113.398438 1279.148315,1086.323730 1283.091064,1058.684448 C1284.656616,1047.709717 1286.451050,1036.766968 1287.950562,1025.783813 C1288.392212,1022.548523 1289.844360,1021.304443 1293.055664,1020.940674 C1316.323242,1018.304749 1339.351807,1014.433594 1361.423828,1006.261780 C1366.712646,1004.303772 1371.815186,1001.824707 1376.929443,999.427612 C1378.014282,998.919189 1378.776611,997.722595 1379.639648,996.451172 C1379.591675,996.059326 1379.625244,996.110352 1379.912354,996.366211 C1382.170776,995.174561 1384.142334,993.727173 1386.113770,992.279785 C1386.113770,992.279785 1386.318726,992.178589 1386.751709,992.394775 C1387.975952,992.462341 1388.842896,992.472534 1389.546143,992.138428 C1393.116333,990.442444 1394.277588,991.394470 1393.161865,995.211487 C1392.935303,995.986511 1393.057373,996.864197 1393.023438,997.694702 C1392.020020,1022.225159 1391.521240,1046.790161 1389.840942,1071.274292 C1388.676147,1088.244995 1386.635864,1105.237793 1383.657715,1121.984375 C1377.879639,1154.478027 1369.977661,1186.475220 1358.736572,1217.601440 C1349.341919,1243.614868 1338.304077,1268.822510 1324.285400,1292.699707 C1323.328003,1294.330444 1323.372070,1296.549072 1322.950439,1298.494263 C1322.950439,1298.494263 1322.878052,1298.726196 1322.486084,1298.611084 C1320.107300,1301.107300 1317.923950,1303.597900 1316.215576,1306.380127 C1315.340820,1307.804810 1315.315430,1309.751099 1314.906250,1311.461792 C1314.906250,1311.461792 1314.820923,1311.667603 1314.392822,1311.573730 C1313.620972,1312.479004 1313.277344,1313.477905 1312.933716,1314.476929 C1312.933716,1314.476929 1312.841064,1314.678345 1312.410645,1314.580811 C1311.641479,1315.488037 1311.302734,1316.492676 1310.963989,1317.497437 C1310.963989,1317.497437 1310.874512,1317.727783 1310.469971,1317.610596 C1308.859375,1319.780396 1307.653320,1322.067505 1306.447266,1324.354614 C1306.447266,1324.354614 1306.445190,1324.408447 1306.065063,1324.311523 C1305.205322,1325.241333 1304.725586,1326.268311 1304.245972,1327.295166 C1304.245972,1327.295166 1304.232910,1327.175293 1303.889648,1327.141846 C1302.802368,1328.515137 1302.058350,1329.921753 1301.314453,1331.328491 C1301.314453,1331.328491 1301.310425,1331.145752 1300.947266,1331.141846 C1300.046265,1332.272949 1299.508423,1333.407959 1298.970703,1334.543091 C1298.970703,1334.543091 1298.858887,1334.744629 1298.444336,1334.619873 C1297.361572,1335.849976 1296.693237,1337.204834 1296.024902,1338.559814 C1296.024902,1338.559814 1295.898438,1338.764648 1295.475708,1338.633179 C1294.384399,1339.859253 1293.715820,1341.216919 1293.047241,1342.574463 C1293.047241,1342.574463 1292.900391,1342.767090 1292.476562,1342.633545 C1291.103882,1344.088623 1290.155029,1345.677124 1289.206177,1347.265625 C1289.206177,1347.265625 1289.182129,1347.153809 1288.847168,1347.118896 C1287.355103,1348.862305 1286.197754,1350.640503 1285.040527,1352.418701 C1284.738403,1352.925293 1284.436157,1353.431885 1283.489014,1354.008545 C1281.910645,1355.575195 1280.977173,1357.071777 1280.043701,1358.568481 C1280.157471,1358.762207 1280.124756,1358.926880 1279.411621,1359.056641 C1275.124878,1360.712769 1271.991211,1362.870605 1272.046021,1367.581909 C1271.737183,1368.051025 1271.428345,1368.520020 1270.516113,1369.022705 C1264.767700,1372.531006 1259.307495,1375.729858 1258.060791,1382.612549 C1255.745239,1385.004272 1253.429810,1387.395996 1250.428955,1389.894409 C1248.555542,1390.458862 1247.125854,1390.636475 1246.218628,1391.419434 C1240.110352,1396.691528 1234.050293,1402.024536 1228.137085,1407.512939 C1227.065918,1408.507202 1226.743530,1410.308228 1226.075439,1411.736694 C1226.075439,1411.736694 1225.855713,1411.915039 1225.411377,1411.689941 C1222.322266,1411.512939 1220.831299,1412.546509 1221.547974,1415.466431 C1221.547974,1415.466431 1221.456299,1415.461060 1221.038452,1415.302490 C1217.766602,1415.101685 1216.055176,1416.233154 1216.288208,1419.361816 C1216.288208,1419.361816 1216.152222,1419.272583 1215.837158,1419.167969 C1214.444214,1420.164429 1213.366455,1421.265625 1212.288574,1422.366821 C1212.288574,1422.366821 1212.153564,1422.280640 1211.847290,1422.172852 C1208.633301,1422.864624 1205.263550,1423.149536 1205.520142,1427.472412 C1205.520142,1427.472412 1205.441162,1427.456177 1205.029663,1427.295532 C1201.620117,1428.056641 1197.951416,1428.185913 1198.014404,1432.724243 C1198.014404,1432.724243 1197.782471,1432.884644 1197.319458,1432.646973 C1196.225586,1433.189819 1195.594727,1433.970215 1194.963867,1434.750732 C1194.963867,1434.750732 1194.747437,1434.877197 1194.302612,1434.643555 C1193.229370,1435.192749 1192.601074,1435.975586 1191.972778,1436.758423 C1191.972778,1436.758423 1191.764771,1436.859985 1191.321899,1436.645508 C1190.419922,1437.118164 1189.960815,1437.805298 1189.501709,1438.492432 C1189.501709,1438.492432 1189.419800,1438.479126 1188.991943,1438.298340 C1187.683472,1438.990356 1186.802734,1439.863281 1185.921997,1440.736206 C1185.921997,1440.736206 1185.713013,1440.847412 1185.282349,1440.623535 C1184.061035,1440.529785 1183.148926,1440.448364 1182.498047,1440.822266 C1173.999634,1445.702393 1165.509644,1450.599365 1157.105225,1455.638428 C1156.109497,1456.235352 1155.633423,1457.698730 1154.916382,1458.760498 C1154.916382,1458.760498 1154.696411,1458.858154 1154.252930,1458.622192 C1152.716797,1458.656616 1151.564087,1458.784912 1150.540283,1459.218140 C1130.420044,1467.734497 1110.305542,1476.264893 1090.230957,1484.888062 C1089.115234,1485.367310 1088.354980,1486.674194 1087.429321,1487.595947 C1087.429321,1487.595947 1087.186157,1487.534058 1086.771240,1487.297119 C1084.409058,1487.373047 1082.417358,1487.519043 1080.522217,1488.026245 C1070.756348,1490.639893 1061.115112,1493.816772 1051.242554,1495.911987 C1035.730469,1499.204102 1020.113953,1502.075684 1004.454529,1504.580200 C992.543823,1506.484985 980.512512,1508.611816 968.509155,1508.777588 C932.329285,1509.277222 896.081238,1510.349731 860.093750,1504.939697 C835.645142,1501.264282 811.556519,1495.967896 787.987732,1488.476562 C761.490967,1480.054688 735.850342,1469.565796 711.394348,1456.255249 C709.702759,1455.334473 707.514954,1455.325684 705.557922,1454.892822 C705.557922,1454.892822 705.322693,1454.831543 705.421021,1454.419434 C703.861816,1453.307129 702.204224,1452.607056 700.546631,1451.906982 C700.546631,1451.906982 700.319702,1451.840942 700.418945,1451.429932 C698.857361,1450.320068 697.196533,1449.621338 695.535706,1448.922485 C695.535706,1448.922485 695.307922,1448.854248 695.411499,1448.443726 C693.855591,1447.328979 692.196106,1446.624634 690.536682,1445.920410 C690.536682,1445.920410 690.326782,1445.835449 690.421936,1445.405396 C689.511475,1444.637207 688.505859,1444.298950 687.500244,1443.960815 C687.500244,1443.960815 687.294495,1443.864624 687.402588,1443.455078 C685.577637,1442.116577 683.644470,1441.187744 681.711365,1440.258789 C681.711365,1440.258789 681.830017,1440.265137 681.843018,1439.911743 C680.794434,1439.149658 679.732849,1438.741089 678.671265,1438.332520 C678.671265,1438.332520 678.793213,1438.392578 678.823792,1438.028809 C676.597656,1434.337036 674.000305,1431.569092 669.479431,1431.964966 C669.479431,1431.964966 669.307922,1431.849976 669.412842,1431.432129 C668.243286,1430.438354 666.968689,1429.862427 665.694153,1429.286377 C665.694153,1429.286377 665.842468,1429.286133 665.858276,1428.929932 C664.462036,1427.877686 663.049988,1427.181519 661.637939,1426.485352 C661.637939,1426.485352 661.558960,1426.462769 661.672607,1426.081909 C660.401489,1424.944946 659.016785,1424.188965 657.632080,1423.432861 C657.632080,1423.432861 657.575806,1423.385620 657.693726,1423.027588 C656.420898,1421.915039 655.030090,1421.160400 653.639282,1420.405762 C653.639282,1420.405762 653.585632,1420.381470 653.705261,1420.026978 C653.113098,1416.926758 651.701660,1415.343750 648.618164,1416.539307 C648.618164,1416.539307 648.531128,1416.484131 648.650146,1416.108521 C648.184265,1412.850586 646.698059,1411.408203 643.619568,1412.510010 C643.619568,1412.510010 643.548828,1412.458984 643.666626,1412.078369 C643.253113,1408.544556 641.181519,1407.734253 638.329163,1408.111694 C638.329163,1408.111694 637.900757,1407.968384 637.918335,1407.452271 C636.178040,1403.478760 634.675781,1399.687256 629.603271,1400.565063 C629.603271,1400.565063 629.602539,1400.613770 629.584961,1400.630859 z"/>
  <path fill="#FFECD1" opacity="1.000000" stroke="none" d=" M705.761230,1455.128906 C707.514954,1455.325684 709.702759,1455.334473 711.394348,1456.255249 C735.850342,1469.565796 761.490967,1480.054688 787.987732,1488.476562 C811.556519,1495.967896 835.645142,1501.264282 860.093750,1504.939697 C896.081238,1510.349731 932.329285,1509.277222 968.509155,1508.777588 C980.512512,1508.611816 992.543823,1506.484985 1004.454529,1504.580200 C1020.113953,1502.075684 1035.730469,1499.204102 1051.242554,1495.911987 C1061.115112,1493.816772 1070.756348,1490.639893 1080.522217,1488.026245 C1082.417358,1487.519043 1084.409058,1487.373047 1086.777832,1487.171875 C1073.865356,1491.170654 1060.676025,1495.678589 1047.170776,1498.833984 C998.203125,1510.274292 948.506714,1514.176514 898.374756,1510.785278 C830.310181,1506.180908 765.794189,1488.789917 705.761230,1455.128906 z"/>
  <path fill="#FFECD1" opacity="1.000000" stroke="none" d=" M1323.198120,1298.312866 C1323.372070,1296.549072 1323.328003,1294.330444 1324.285400,1292.699707 C1338.304077,1268.822510 1349.341919,1243.614868 1358.736572,1217.601440 C1369.977661,1186.475220 1377.879639,1154.478027 1383.657715,1121.984375 C1386.635864,1105.237793 1388.676147,1088.244995 1389.840942,1071.274292 C1391.521240,1046.790161 1392.020020,1022.225159 1393.023438,997.694702 C1393.057373,996.864197 1392.935303,995.986511 1393.161865,995.211487 C1394.277588,991.394470 1393.116333,990.442444 1389.546143,992.138428 C1388.842896,992.472534 1387.975952,992.462341 1386.860596,992.360352 C1389.179199,990.194641 1391.821533,988.279541 1395.153687,985.864502 C1395.362915,988.051514 1395.618530,989.423340 1395.607178,990.793030 C1395.218994,1037.953613 1392.876343,1084.965820 1383.997559,1131.414062 C1372.756592,1190.219604 1354.191406,1246.395264 1323.198120,1298.312866 z"/>
  <path fill="#FFECD1" opacity="1.000000" stroke="none" d=" M1087.792236,1487.528320 C1088.354980,1486.674194 1089.115234,1485.367310 1090.230957,1484.888062 C1110.305542,1476.264893 1130.420044,1467.734497 1150.540283,1459.218140 C1151.564087,1458.784912 1152.716797,1458.656616 1154.135010,1458.646240 C1135.793213,1467.233398 1117.144165,1475.602051 1098.441772,1483.849365 C1095.126709,1485.311401 1091.589600,1486.269653 1087.792236,1487.528320 z"/>
  <path fill="#FFECD1" opacity="1.000000" stroke="none" d=" M1226.364258,1411.677490 C1226.743530,1410.308228 1227.065918,1408.507202 1228.137085,1407.512939 C1234.050293,1402.024536 1240.110352,1396.691528 1246.218628,1391.419434 C1247.125854,1390.636475 1248.555542,1390.458862 1250.147217,1390.021729 C1242.584961,1397.234253 1234.619019,1404.426270 1226.364258,1411.677490 z"/>
  <path fill="#FFECD1" opacity="1.000000" stroke="none" d=" M1155.234253,1458.725220 C1155.633423,1457.698730 1156.109497,1456.235352 1157.105225,1455.638428 C1165.509644,1450.599365 1173.999634,1445.702393 1182.498047,1440.822266 C1183.148926,1440.448364 1184.061035,1440.529785 1185.171387,1440.664673 C1175.511353,1446.849854 1165.531738,1452.769897 1155.234253,1458.725220 z"/>
  <path fill="#FFECD1" opacity="1.000000" stroke="none" d=" M1258.372803,1382.432495 C1259.307495,1375.729858 1264.767700,1372.531006 1270.308105,1369.091309 C1266.697266,1373.501465 1262.691040,1377.876953 1258.372803,1382.432495 z"/>
  <path fill="#FFECD1" opacity="1.000000" stroke="none" d=" M1315.144531,1311.271484 C1315.315430,1309.751099 1315.340820,1307.804810 1316.215576,1306.380127 C1317.923950,1303.597900 1320.107300,1301.107300 1322.433350,1298.720459 C1320.309448,1302.990356 1317.846191,1307.035645 1315.144531,1311.271484 z"/>
  <path fill="#FFECD1" opacity="1.000000" stroke="none" d=" M669.645447,1432.214233 C674.000305,1431.569092 676.597656,1434.337036 678.756104,1438.035645 C675.709106,1436.425415 672.760315,1434.444458 669.645447,1432.214233 z"/>
  <path fill="#FFECD1" opacity="1.000000" stroke="none" d=" M629.786255,1400.823730 C634.675781,1399.687256 636.178040,1403.478760 637.887817,1407.336914 C635.216248,1405.519165 632.592712,1403.300781 629.786255,1400.823730 z"/>
  <path fill="#FFECD1" opacity="1.000000" stroke="none" d=" M1272.348755,1367.385986 C1271.991211,1362.870605 1275.124878,1360.712769 1279.274658,1359.073486 C1277.331543,1361.793945 1274.991455,1364.492065 1272.348755,1367.385986 z"/>
  <path fill="#FFECD1" opacity="1.000000" stroke="none" d=" M1198.308838,1432.666748 C1197.951416,1428.185913 1201.620117,1428.056641 1204.990479,1427.305420 C1203.109741,1429.187012 1200.856567,1430.898193 1198.308838,1432.666748 z"/>
  <path fill="#FFECD1" opacity="1.000000" stroke="none" d=" M1205.804199,1427.318359 C1205.263550,1423.149536 1208.633301,1422.864624 1211.927246,1422.177124 C1210.238403,1423.914062 1208.163208,1425.539185 1205.804199,1427.318359 z"/>
  <path fill="#FFECD1" opacity="1.000000" stroke="none" d=" M1306.710205,1324.153687 C1307.653320,1322.067505 1308.859375,1319.780396 1310.408936,1317.717896 C1309.492554,1319.945923 1308.232910,1321.949341 1306.710205,1324.153687 z"/>
  <path fill="#FFECD1" opacity="1.000000" stroke="none" d=" M1385.808350,992.344849 C1384.142334,993.727173 1382.170776,995.174561 1379.882202,996.366333 C1381.544312,994.877075 1383.523682,993.643433 1385.808350,992.344849 z"/>
  <path fill="#FFECD1" opacity="1.000000" stroke="none" d=" M1216.593262,1419.243042 C1216.055176,1416.233154 1217.766602,1415.101685 1220.998291,1415.324707 C1219.883423,1416.711792 1218.390869,1417.917969 1216.593262,1419.243042 z"/>
  <path fill="#FFECD1" opacity="1.000000" stroke="none" d=" M648.802979,1416.789062 C651.701660,1415.343750 653.113098,1416.926758 653.701294,1420.056152 C652.047729,1419.306152 650.517822,1418.172607 648.802979,1416.789062 z"/>
  <path fill="#FFECD1" opacity="1.000000" stroke="none" d=" M643.802734,1412.761841 C646.698059,1411.408203 648.184265,1412.850586 648.598755,1416.105225 C646.947510,1415.322998 645.466736,1414.168335 643.802734,1412.761841 z"/>
  <path fill="#FFECD1" opacity="1.000000" stroke="none" d=" M638.502258,1408.420410 C641.181519,1407.734253 643.253113,1408.544556 643.623535,1412.085205 C641.866882,1411.224609 640.271118,1409.976807 638.502258,1408.420410 z"/>
  <path fill="#FFECD1" opacity="1.000000" stroke="none" d=" M1285.328247,1352.223633 C1286.197754,1350.640503 1287.355103,1348.862305 1288.899902,1347.141113 C1288.063721,1348.808350 1286.839844,1350.418579 1285.328247,1352.223633 z"/>
  <path fill="#FFECD1" opacity="1.000000" stroke="none" d=" M681.902588,1440.541748 C683.644470,1441.187744 685.577637,1442.116577 687.300720,1443.405029 C685.425049,1442.784424 683.759460,1441.804565 681.902588,1440.541748 z"/>
  <path fill="#FFECD1" opacity="1.000000" stroke="none" d=" M1221.813232,1415.309326 C1220.831299,1412.546509 1222.322266,1411.512939 1225.286987,1411.757690 C1224.430786,1413.084351 1223.254517,1414.118286 1221.813232,1415.309326 z"/>
  <path fill="#FFECD1" opacity="1.000000" stroke="none" d=" M690.720947,1446.159180 C692.196106,1446.624634 693.855591,1447.328979 695.304810,1448.391113 C693.698120,1447.965332 692.301636,1447.181763 690.720947,1446.159180 z"/>
  <path fill="#FFECD1" opacity="1.000000" stroke="none" d=" M700.735901,1452.140137 C702.204224,1452.607056 703.861816,1453.307129 705.314331,1454.361084 C703.714539,1453.934326 702.319885,1453.153809 700.735901,1452.140137 z"/>
  <path fill="#FFECD1" opacity="1.000000" stroke="none" d=" M695.720520,1449.159790 C697.196533,1449.621338 698.857361,1450.320068 700.313477,1451.376831 C698.707581,1450.955444 697.306458,1450.176270 695.720520,1449.159790 z"/>
  <path fill="#FFECD1" opacity="1.000000" stroke="none" d=" M1289.498291,1347.103760 C1290.155029,1345.677124 1291.103882,1344.088623 1292.404907,1342.731201 C1291.768188,1344.288940 1290.779297,1345.615356 1289.498291,1347.103760 z"/>
  <path fill="#FFECD1" opacity="1.000000" stroke="none" d=" M1301.585571,1331.155029 C1302.058350,1329.921753 1302.802368,1328.515137 1303.940430,1327.174316 C1303.508667,1328.487183 1302.682617,1329.734375 1301.585571,1331.155029 z"/>
  <path fill="#FFECD1" opacity="1.000000" stroke="none" d=" M1280.344482,1358.360107 C1280.977173,1357.071777 1281.910645,1355.575195 1283.280762,1354.104248 C1282.693481,1355.470703 1281.669312,1356.811157 1280.344482,1358.360107 z"/>
  <path fill="#FFECD1" opacity="1.000000" stroke="none" d=" M1293.303711,1342.444336 C1293.715820,1341.216919 1294.384399,1339.859253 1295.412842,1338.735840 C1295.035278,1340.084717 1294.297852,1341.199463 1293.303711,1342.444336 z"/>
  <path fill="#FFECD1" opacity="1.000000" stroke="none" d=" M1296.277100,1338.422852 C1296.693237,1337.204834 1297.361572,1335.849976 1298.388428,1334.720703 C1298.007812,1336.059448 1297.268555,1337.172607 1296.277100,1338.422852 z"/>
  <path fill="#FFECD1" opacity="1.000000" stroke="none" d=" M1212.588379,1422.250000 C1213.366455,1421.265625 1214.444214,1420.164429 1215.918213,1419.174072 C1215.172363,1420.234497 1214.030273,1421.183838 1212.588379,1422.250000 z"/>
  <path fill="#FFECD1" opacity="1.000000" stroke="none" d=" M653.817810,1420.663330 C655.030090,1421.160400 656.420898,1421.915039 657.682251,1423.062500 C656.367310,1422.610474 655.181824,1421.765625 653.817810,1420.663330 z"/>
  <path fill="#FFECD1" opacity="1.000000" stroke="none" d=" M657.810059,1423.687012 C659.016785,1424.188965 660.401489,1424.944946 661.632385,1426.090088 C660.315063,1425.633179 659.151489,1424.787231 657.810059,1423.687012 z"/>
  <path fill="#FFECD1" opacity="1.000000" stroke="none" d=" M661.827332,1426.730957 C663.049988,1427.181519 664.462036,1427.877686 665.796387,1428.970703 C664.484619,1428.570679 663.250671,1427.773560 661.827332,1426.730957 z"/>
  <path fill="#FFECD1" opacity="1.000000" stroke="none" d=" M1299.209229,1334.393433 C1299.508423,1333.407959 1300.046265,1332.272949 1300.985596,1331.224854 C1300.740723,1332.289062 1300.094238,1333.266357 1299.209229,1334.393433 z"/>
  <path fill="#FFECD1" opacity="1.000000" stroke="none" d=" M1186.207397,1440.684570 C1186.802734,1439.863281 1187.683472,1438.990356 1188.951904,1438.287720 C1188.390625,1439.182983 1187.441772,1439.907959 1186.207397,1440.684570 z"/>
  <path fill="#FFECD1" opacity="1.000000" stroke="none" d=" M665.867493,1429.558594 C666.968689,1429.862427 668.243286,1430.438354 669.318604,1431.390137 C668.093140,1431.120850 667.067017,1430.475830 665.867493,1429.558594 z"/>
  <path fill="#FFECD1" opacity="1.000000" stroke="none" d=" M1304.514526,1327.142334 C1304.725586,1326.268311 1305.205322,1325.241333 1306.079468,1324.334229 C1305.910278,1325.299072 1305.346680,1326.144287 1304.514526,1327.142334 z"/>
  <path fill="#FFECD1" opacity="1.000000" stroke="none" d=" M1311.190430,1317.345459 C1311.302734,1316.492676 1311.641479,1315.488037 1312.360840,1314.679810 C1312.299805,1315.648682 1311.858398,1316.421021 1311.190430,1317.345459 z"/>
  <path fill="#FFECD1" opacity="1.000000" stroke="none" d=" M1313.154175,1314.318115 C1313.277344,1313.477905 1313.620972,1312.479004 1314.340820,1311.672485 C1314.269653,1312.629639 1313.822144,1313.394409 1313.154175,1314.318115 z"/>
  <path fill="#FFECD1" opacity="1.000000" stroke="none" d=" M1192.236694,1436.727783 C1192.601074,1435.975586 1193.229370,1435.192749 1194.186279,1434.689941 C1193.843384,1435.545654 1193.171997,1436.121338 1192.236694,1436.727783 z"/>
  <path fill="#FFECD1" opacity="1.000000" stroke="none" d=" M687.652893,1444.186035 C688.505859,1444.298950 689.511475,1444.637207 690.321411,1445.353394 C689.352356,1445.291382 688.578979,1444.851318 687.652893,1444.186035 z"/>
  <path fill="#FFECD1" opacity="1.000000" stroke="none" d=" M678.848206,1438.590576 C679.732849,1438.741089 680.794434,1439.149658 681.804382,1439.956787 C680.843567,1439.853149 679.934326,1439.350952 678.848206,1438.590576 z"/>
  <path fill="#FFECD1" opacity="1.000000" stroke="none" d=" M1195.227417,1434.716309 C1195.594727,1433.970215 1196.225586,1433.189819 1197.184814,1432.688477 C1196.838989,1433.539062 1196.165039,1434.110352 1195.227417,1434.716309 z"/>
  <path fill="#FFECD1" opacity="1.000000" stroke="none" d=" M1189.740479,1438.376587 C1189.960815,1437.805298 1190.419922,1437.118164 1191.216797,1436.694092 C1191.029541,1437.391602 1190.504395,1437.826172 1189.740479,1438.376587 z"/>
  <path fill="#FFECD1" opacity="1.000000" stroke="none" d=" M1324.622681,632.522766 C1325.891724,635.522034 1327.160767,638.521301 1328.619995,641.970032 C1323.633667,641.970032 1319.341797,641.863831 1315.056641,641.986389 C1268.432739,643.319824 1221.762695,643.811401 1175.200806,646.311340 C1133.972656,648.524841 1092.934937,653.776794 1053.086548,665.188721 C1039.137573,669.183533 1025.200806,674.403564 1012.511597,681.352356 C990.493042,693.409973 967.177490,699.519592 942.473633,700.611755 C919.370483,701.633118 896.462219,699.245300 874.696716,691.024109 C864.031555,686.995728 854.135742,680.958923 843.801758,676.019348 C821.362366,665.293396 797.255798,660.316711 772.998169,656.094971 C736.688171,649.775269 700.023926,646.377930 663.236023,645.045654 C622.961609,643.586975 582.648621,643.197021 542.352600,642.329407 C541.576599,642.312683 540.803772,642.149719 539.229065,641.957031 C543.928223,631.054810 548.256592,620.497620 552.985657,610.123108 C588.085999,533.121155 634.355530,463.661530 694.053040,403.515472 C733.488037,363.784180 778.490845,331.919403 830.780151,311.108307 C855.909485,301.106873 881.866211,294.357513 908.946716,291.909454 C966.121704,286.740906 1019.132935,300.258789 1069.502563,326.517639 C1092.310303,338.407806 1113.524170,352.651337 1133.427368,369.117615 C1131.961548,369.018188 1130.513306,368.682739 1129.384644,367.891449 C1119.189209,360.743103 1109.093750,353.451355 1098.865479,346.350952 C1095.990723,344.355408 1092.773682,342.853088 1089.713623,341.124573 C1089.801147,343.338989 1090.536377,344.783142 1091.560669,345.980103 C1096.092651,351.275879 1100.754639,356.460297 1105.284546,361.757874 C1127.323730,387.532440 1147.527588,414.645172 1165.878418,443.195648 C1191.065674,482.382111 1211.728149,523.853088 1228.720703,567.115906 C1237.458130,589.361450 1244.531006,612.258545 1252.561890,634.787842 C1253.280029,636.802490 1255.237183,639.246277 1257.112671,639.791077 C1260.699097,640.832886 1264.645020,640.967102 1268.435059,640.921509 C1283.895996,640.735779 1299.353394,640.269592 1314.814087,640.048767 C1323.359253,639.926697 1323.361084,640.053528 1324.622681,632.522766 M727.293945,487.606323 C730.396484,488.071259 733.625977,489.331116 736.578979,488.859619 C747.664429,487.089508 758.967834,485.747681 769.629272,482.439392 C798.428894,473.502747 824.625122,459.035553 849.229553,441.795898 C871.124390,426.454803 890.956177,408.843964 904.820251,385.552765 C908.344788,379.631714 911.297791,373.212494 913.452881,366.672668 C916.407654,357.706635 909.466248,346.054321 899.693115,343.556458 C889.722961,341.008240 880.200500,342.585083 870.760986,344.716431 C842.165955,351.172760 816.648926,364.675140 792.143311,380.289246 C771.007690,393.756104 751.564880,409.339233 735.871948,428.944336 C728.896729,437.658478 722.760559,447.393219 718.105225,457.520477 C713.128601,468.346893 714.693176,481.492981 727.293945,487.606323 M1087.497314,340.609985 C1087.497314,340.609985 1087.595215,340.451294 1087.595215,340.451294 C1087.595215,340.451294 1087.405396,340.468719 1087.497314,340.609985 z"/>
  <path fill="#FFCC9B" opacity="1.000000" stroke="none" d=" M1324.615723,632.537537 C1323.361084,640.053528 1323.359253,639.926697 1314.814087,640.048767 C1299.353394,640.269592 1283.895996,640.735779 1268.435059,640.921509 C1264.645020,640.967102 1260.699097,640.832886 1257.112671,639.791077 C1255.237183,639.246277 1253.280029,636.802490 1252.561890,634.787842 C1244.531006,612.258545 1237.458130,589.361450 1228.720703,567.115906 C1211.728149,523.853088 1191.065674,482.382111 1165.878418,443.195648 C1147.527588,414.645172 1127.323730,387.532440 1105.284546,361.757874 C1100.754639,356.460297 1096.092651,351.275879 1091.560669,345.980103 C1090.536377,344.783142 1089.801147,343.338989 1089.713623,341.124573 C1092.773682,342.853088 1095.990723,344.355408 1098.865479,346.350952 C1109.093750,353.451355 1119.189209,360.743103 1129.384644,367.891449 C1130.513306,368.682739 1131.961548,369.018188 1133.640869,369.380066 C1134.020264,369.195038 1133.993530,369.222046 1133.747803,369.597046 C1135.211548,370.956329 1136.921265,371.940613 1138.630859,372.924866 C1138.630859,372.924866 1139.086182,373.024078 1139.076416,373.541321 C1143.063477,377.994720 1147.028320,381.964966 1151.115234,385.805298 C1151.457886,386.127319 1152.621460,385.575714 1153.403687,385.430054 C1153.403687,385.430023 1153.485596,385.508118 1153.360352,385.871063 C1154.185303,387.698578 1154.925903,389.366455 1156.118164,390.596497 C1168.795288,403.674530 1181.757690,416.483215 1194.201416,429.778107 C1203.134888,439.322571 1211.352051,449.534943 1220.032349,459.322052 C1221.038696,460.456665 1222.963501,460.776672 1224.462524,461.474365 C1224.462524,461.474335 1224.443970,461.552673 1224.291748,461.960938 C1224.455078,463.433167 1224.515625,464.679138 1225.125244,465.533356 C1231.933594,475.074463 1238.778076,484.591217 1245.773804,493.994690 C1246.453979,494.908844 1248.209106,495.023193 1249.465210,495.508820 C1249.465210,495.508820 1249.449707,495.580902 1249.283691,495.998749 C1250.865845,499.924530 1252.249878,503.677734 1254.420654,506.901184 C1270.414551,530.651550 1285.399414,555.002319 1298.234131,580.612976 C1305.017944,594.149048 1311.278076,607.947021 1317.915405,621.557983 C1318.670654,623.106750 1320.339478,624.209961 1321.584595,625.519836 C1321.584595,625.519836 1321.565430,625.694397 1321.335938,626.102905 C1322.264404,628.526978 1323.422485,630.542603 1324.580444,632.558228 C1324.580444,632.558228 1324.608887,632.552307 1324.615723,632.537537 z"/>
  <path fill="#FFECD1" opacity="1.000000" stroke="none" d=" M1321.479004,625.179932 C1320.339478,624.209961 1318.670654,623.106750 1317.915405,621.557983 C1311.278076,607.947021 1305.017944,594.149048 1298.234131,580.612976 C1285.399414,555.002319 1270.414551,530.651550 1254.420654,506.901184 C1252.249878,503.677734 1250.865845,499.924530 1249.278076,496.035156 C1263.290771,517.860168 1277.971436,539.602478 1290.747070,562.411926 C1302.057007,582.604553 1311.247192,603.984436 1321.479004,625.179932 z"/>
  <path fill="#FFECD1" opacity="1.000000" stroke="none" d=" M1224.300049,461.193359 C1222.963501,460.776672 1221.038696,460.456665 1220.032349,459.322052 C1211.352051,449.534943 1203.134888,439.322571 1194.201416,429.778107 C1181.757690,416.483215 1168.795288,403.674530 1156.118164,390.596497 C1154.925903,389.366455 1154.185303,387.698578 1153.415039,385.885284 C1179.838135,408.107971 1202.989624,433.572662 1224.300049,461.193359 z"/>
  <path fill="#FFECD1" opacity="1.000000" stroke="none" d=" M1249.316650,495.214020 C1248.209106,495.023193 1246.453979,494.908844 1245.773804,493.994690 C1238.778076,484.591217 1231.933594,475.074463 1225.125244,465.533356 C1224.515625,464.679138 1224.455078,463.433167 1224.312622,461.995361 C1232.713135,472.720764 1240.940552,483.820007 1249.316650,495.214020 z"/>
  <path fill="#FFECD1" opacity="1.000000" stroke="none" d=" M1153.224365,385.168457 C1152.621460,385.575714 1151.457886,386.127319 1151.115234,385.805298 C1147.028320,381.964966 1143.063477,377.994720 1139.111572,373.660767 C1143.786011,377.144226 1148.415649,381.025543 1153.224365,385.168457 z"/>
  <path fill="#FFECD1" opacity="1.000000" stroke="none" d=" M1324.482666,632.225098 C1323.422485,630.542603 1322.264404,628.526978 1321.251831,626.128296 C1322.393188,627.794128 1323.389038,629.843079 1324.482666,632.225098 z"/>
  <path fill="#FFECD1" opacity="1.000000" stroke="none" d=" M1138.439087,372.620178 C1136.921265,371.940613 1135.211548,370.956329 1133.730591,369.599579 C1135.388550,370.256531 1136.817993,371.285980 1138.439087,372.620178 z"/>
  <path fill="#FEF6E9" opacity="1.000000" stroke="none" d=" M726.939209,487.432983 C714.693176,481.492981 713.128601,468.346893 718.105225,457.520477 C722.760559,447.393219 728.896729,437.658478 735.871948,428.944336 C751.564880,409.339233 771.007690,393.756104 792.143311,380.289246 C816.648926,364.675140 842.165955,351.172760 870.760986,344.716431 C880.200500,342.585083 889.722961,341.008240 899.693115,343.556458 C909.466248,346.054321 916.407654,357.706635 913.452881,366.672668 C911.297791,373.212494 908.344788,379.631714 904.820251,385.552765 C890.956177,408.843964 871.124390,426.454803 849.229553,441.795898 C824.625122,459.035553 798.428894,473.502747 769.629272,482.439392 C758.967834,485.747681 747.664429,487.089508 736.578979,488.859619 C733.625977,489.331116 730.396484,488.071259 726.939209,487.432983 z"/>
  <path fill="#FFCC9B" opacity="1.000000" stroke="none" d=" M1087.451416,340.539368 C1087.405396,340.468719 1087.595215,340.451294 1087.595215,340.451294 C1087.595215,340.451294 1087.497314,340.609985 1087.451416,340.539368 z"/>
</svg>